ply
format ascii 1.0
element vertex 180
property double x
property double y
property double z
end_header
1.980000000000000 0.000000000000000 0.000000000000000
1.979695057658993 0.034748793943889 0.000000000000000
1.928811124449816 0.067732165170153 0.000000000000000
1.977256082476743 0.104203571477763 0.000000000000000
1.925245962488459 0.135380884625143 0.000000000000000
1.544035738496744 0.135844168976123 0.000000000000000
1.491690859880072 0.157665400612340 0.000000000000000
1.488694111283694 0.183820137714157 0.000000000000000
1.485238811306167 0.209918254065349 0.000000000000000
1.451699503772701 0.231232676639989 0.000000000000000
1.398185917745985 0.247943823106801 0.000000000000000
1.295476996352738 0.253257481470711 0.000000000000000
1.369065128915245 0.292678446060321 0.000000000000000
1.363717801168088 0.316660320812814 0.000000000000000
1.309452188364898 0.328382347860508 0.000000000000000
1.400042067249863 0.377335672751372 0.000000000000000
1.758319837952520 0.507160080706895 0.000000000000000
1.768264806507434 0.543819431491032 0.000000000000000
1.786963880417737 0.584089111422550 0.000000000000000
1.748090550366917 0.605540607819071 0.000000000000000
1.737194150048491 0.636126154970302 0.000000000000000
1.725762654729158 0.666515760910550 0.000000000000000
1.760118493285484 0.715529796440676 0.000000000000000
1.747289941714262 0.746309493162302 0.000000000000000
1.779552742921271 0.797302975763530 0.000000000000000
1.765286087469237 0.828411147551476 0.000000000000000
1.750475684065628 0.859264150011493 0.000000000000000
1.735126094648913 0.889852479722572 0.000000000000000
1.763325176655408 0.943760733116807 0.000000000000000
1.746490702031805 0.974561556658405 0.000000000000000
1.772346225580977 1.030188748079139 0.000000000000000
1.796773889651916 1.087015910401097 0.000000000000000
1.777420150096145 1.118381692461120 0.000000000000000
1.757518925023684 1.149402987721710 0.000000000000000
1.737076344460960 1.180070240923881 0.000000000000000
1.756958198164682 1.239192434572577 0.000000000000000
1.775287348245108 1.299367088686201 0.000000000000000
1.752210176779370 1.330323079703126 0.000000000000000
1.767879496061212 1.391798148944867 0.000000000000000
1.743181309999940 1.422609897500680 0.000000000000000
1.756122766640882 1.485271971217923 0.000000000000000
1.767389977469220 1.548816537728516 0.000000000000000
1.739936210416889 1.579595512680420 0.000000000000000
1.784795291140673 1.678393806209401 0.000000000000000
1.755064775896749 1.709458286243479 0.000000000000000
1.759993531730486 1.775506341376130 0.000000000000000
1.763133771778593 1.842243008621227 0.000000000000000
1.798395019190645 1.946349237662727 0.000000000000000
1.763959819498930 1.977611123348901 0.000000000000000
1.761603568685088 2.046155631127789 0.000000000000000
1.789326978416751 2.153673365278491 0.000000000000000
1.763763620287953 2.200349493091662 0.000000000000000
1.755458985325143 2.270520590270263 0.000000000000000
1.775109211690556 2.381152512245139 0.000000000000000
1.762222718885680 2.452543799617687 0.000000000000000
1.747368193621507 2.524203715217912 0.000000000000000
1.758265350623520 2.637688942388156 0.000000000000000
3.493602821101474 5.445699158821742 0.000000000000000
3.502516290565625 5.676379095367258 0.000000000000000
3.529881626377137 5.952002663286123 0.000000000000000
3.523865956224958 6.186822182878603 0.000000000000000
3.390765203716263 6.203838435458084 0.000000000000000
3.258160000886541 6.218102074477630 0.000000000000000
3.103680291916008 6.184946939592300 0.000000000000000
3.016294810918628 6.283539258540951 0.000000000000000
2.863868224813695 6.244610379431406 0.000000000000000
2.733792428021717 6.248102028655672 0.000000000000000
2.623717852770717 6.295117523053261 0.000000000000000
2.494412568394207 6.293711618642612 0.000000000000000
2.365970469836667 6.289720481536588 0.000000000000000
2.238442217135423 6.283174073710344 0.000000000000000
2.079976207307008 6.179328359703565 0.000000000000000
1.956092662144330 6.167219916388997 0.000000000000000
1.847557334085304 6.200599317587583 0.000000000000000
1.778757080121008 6.376552614847570 0.000000000000000
1.792449563789653 6.890683896484462 0.000000000000000
1.788605271689308 7.407110852558183 0.000000000000000
1.788913402287261 8.022978800864243 0.000000000000000
1.788162065949750 8.738928791671112 0.000000000000000
1.753626731746553 9.407959039329620 0.000000000000000
1.787401299512428 10.620644829505471 0.000000000000000
1.786521113549369 11.886494113524067 0.000000000000000
1.702327859479840 12.857798406369529 0.000000000000000
2.352925955100186 20.535643146729445 0.000000000000000
2.001803132263999 20.673308497182013 0.000000000000000
1.650514895139868 20.854788432897649 0.000000000000000
3.069458247029072 49.905695326983924 0.000000000000000
1.667668033211955 37.983408000480992 0.000000000000000
1.004754809177570 38.156773550359766 0.000000000000000
0.333197603549536 37.968538019747200 0.000000000000000
-0.335391425010888 38.218528393856680 0.000000000000000
-0.548048077733227 20.812785572923509 0.000000000000000
-0.566708863469185 12.907565264761031 0.000000000000000
-0.737897762585788 11.997329156606934 0.000000000000000
-0.739260256570773 9.340791951063620 0.000000000000000
-0.792239853019263 8.181733069178438 0.000000000000000
-0.804798572934607 7.024044366104362 0.000000000000000
-0.809819806707066 6.116624222613723 0.000000000000000
-0.813000872804913 5.409244825372434 0.000000000000000
-0.833124839698458 4.950384126659003 0.000000000000000
-0.828254213949261 4.443466547311377 0.000000000000000
-0.835945719171576 4.085351240052526 0.000000000000000
-0.831344184517924 3.728440269988005 0.000000000000000
-0.837968611539479 3.470260596277259 0.000000000000000
-0.835805133677198 3.213071704540507 0.000000000000000
-0.824891878545543 2.957102194498797 0.000000000000000
-0.833828039494450 2.798415766206451 0.000000000000000
-0.837461618877866 2.640370814280915 0.000000000000000
-0.835818659991466 2.483104340862476 0.000000000000000
-0.828928377260045 2.326752618000683 0.000000000000000
-0.834427085344182 2.218249634113351 0.000000000000000
-0.854806079567882 2.156781529579152 0.000000000000000
-0.854054784919501 2.049143827152234 0.000000000000000
-0.921953458130491 2.107131182684464 0.000000000000000
-0.904598842481182 1.972460629310939 0.000000000000000
-0.917438306907818 1.911205628135842 0.000000000000000
-0.905987599663344 1.805432488146885 0.000000000000000
-0.914326951815738 1.744965966769364 0.000000000000000
-0.911238173558826 1.667226736544605 0.000000000000000
-0.940357488318458 1.650977829700750 0.000000000000000
-0.918177301658793 1.548208785247835 0.000000000000000
-0.918951050748103 1.489304860103853 0.000000000000000
-0.917948191015843 1.430863766614677 0.000000000000000
-0.942918326832803 1.414533502227086 0.000000000000000
-0.939139257158139 1.356656719905393 0.000000000000000
-0.933627930535460 1.299360953439834 0.000000000000000
-0.818821420880829 1.098376748072673 0.000000000000000
-0.825738547104161 1.068014911799601 0.000000000000000
-0.844354924605935 1.053358799884306 0.000000000000000
-0.830758954264920 0.999919776736442 0.000000000000000
-0.815557207724578 0.947294273670273 0.000000000000000
-0.832056518631571 0.932835435541934 0.000000000000000
-0.814367555859915 0.881365692526518 0.000000000000000
-0.829710010248750 0.866937886409989 0.000000000000000
-0.844796895230634 0.852243043860542 0.000000000000000
-0.823805915216842 0.802398787420408 0.000000000000000
-0.837761055025214 0.787817500873800 0.000000000000000
-0.814438226152586 0.739385133595090 0.000000000000000
-0.827288925623890 0.724977953830369 0.000000000000000
-0.839884801436944 0.710347464495528 0.000000000000000
-0.813484611333305 0.663884618833650 0.000000000000000
-0.825010431495232 0.649505802840937 0.000000000000000
-0.836282129826517 0.634926924403765 0.000000000000000
-0.847296234389711 0.620152474145687 0.000000000000000
-0.858049352592054 0.605187002930794 0.000000000000000
-0.827179211648076 0.561938209963753 0.000000000000000
-0.836913773820802 0.547334756057957 0.000000000000000
-0.846390547664831 0.532562710695772 0.000000000000000
-0.812826283413962 0.491745292800496 0.000000000000000
-0.821331177708258 0.477404541792772 0.000000000000000
-0.829583083465107 0.462916739412742 0.000000000000000
-0.837579458911319 0.448286348230483 0.000000000000000
-0.800827428299498 0.410701144487341 0.000000000000000
-0.807911854184136 0.396583453851458 0.000000000000000
-0.814747424985802 0.382343606562220 0.000000000000000
-0.821332035194433 0.367985988813937 0.000000000000000
-0.827663656601492 0.353515023076880 0.000000000000000
-0.833740338924703 0.338935166735057 0.000000000000000
-0.839560210408780 0.324250910713241 0.000000000000000
-0.798170285157415 0.292274179310679 0.000000000000000
-0.850422429908230 0.294587322722791 0.000000000000000
-0.855461432114874 0.279617127808668 0.000000000000000
-0.812445992179091 0.249862982036420 0.000000000000000
-0.816705935661006 0.235566157705388 0.000000000000000
-0.820714315284402 0.221196773681838 0.000000000000000
-0.872968125576599 0.218921565240338 0.000000000000000
-0.779267314953193 0.180948754750179 0.000000000000000
-0.831218113984256 0.177697627965195 0.000000000000000
-0.834208671893809 0.163082469128866 0.000000000000000
-0.787710376194921 0.139686660905240 0.000000000000000
-0.790040546270858 0.125840912457137 0.000000000000000
-0.841635326406828 0.118953677303697 0.000000000000000
-0.843593329727427 0.104164744704689 0.000000000000000
-0.845291487265374 0.089343727013659 0.000000000000000
-0.876613838630410 0.077124431418702 0.000000000000000
-0.827955517546850 0.058220794942419 0.000000000000000
-0.828849771947322 0.043681295114415 0.000000000000000
-0.829488721913651 0.029128340461776 0.000000000000000
-0.849869090409164 0.014917411541569 0.000000000000000
-0.830000000000000 0.000000000000000 0.000000000000000
