ply
format ascii 1.0
element vertex 180
property double x
property double y
property double z
end_header
1.730000000000000 0.000000000000000 0.000000000000000
1.729733560479827 0.030361319961075 0.000000000000000
1.728934323988695 0.060713287950448 0.000000000000000
1.727602536709478 0.091046554877035 0.000000000000000
1.725738608862712 0.121351777410102 0.000000000000000
1.723343114580237 0.151619620857221 0.000000000000000
1.720416791728350 0.181840762039566 0.000000000000000
1.716960541680527 0.212005892163661 0.000000000000000
1.712975429039779 0.242105719688702 0.000000000000000
1.708462681310730 0.272130973188559 0.000000000000000
1.752655587033700 0.310802820514160 0.000000000000000
1.746931101142329 0.341513876528685 0.000000000000000
1.740668521049383 0.372119738562408 0.000000000000000
1.733869775770855 0.402610979319149 0.000000000000000
1.726536959473717 0.432978206808670 0.000000000000000
1.718672330830866 0.463212067239615 0.000000000000000
1.710278312325402 0.493303247900696 0.000000000000000
1.701357489504449 0.523242480029209 0.000000000000000
1.739438245300244 0.568554826544291 0.000000000000000
1.776437964697191 0.615360185243164 0.000000000000000
1.718413672750670 0.629249115457109 0.000000000000000
1.679120420817559 0.648501821426481 0.000000000000000
1.713799585567445 0.696700064955395 0.000000000000000
1.701308627458623 0.726669769658031 0.000000000000000
1.688293627899667 0.756415643673093 0.000000000000000
1.674758595804148 0.785928524600119 0.000000000000000
1.660707700267390 0.815199321805775 0.000000000000000
1.690635681965607 0.867035749473276 0.000000000000000
1.675158917822638 0.896572696460967 0.000000000000000
1.659166166930214 0.925833478825485 0.000000000000000
1.685890312138003 0.979935638416742 0.000000000000000
1.711213228239920 1.035253248001044 0.000000000000000
1.692781095329662 1.065125421391543 0.000000000000000
1.673827547641604 1.094669512115915 0.000000000000000
1.695717383878556 1.151973330425693 0.000000000000000
1.675239212203534 1.181555577150597 0.000000000000000
1.694592468779421 1.240304948291373 0.000000000000000
1.672564259653035 1.269853848807529 0.000000000000000
1.689307074014047 1.329940453436206 0.000000000000000
1.704443947555497 1.390996344222887 0.000000000000000
1.679769602873888 1.420694928991056 0.000000000000000
1.692181893321594 1.482909451016664 0.000000000000000
1.665896371675744 1.512378682353593 0.000000000000000
1.675522110050428 1.575635001747601 0.000000000000000
1.683429478921372 1.639684478641704 0.000000000000000
1.689593790461267 1.704486087721085 0.000000000000000
3.228954789884718 3.373833274612208 0.000000000000000
3.203179053048998 3.466705057270971 0.000000000000000
3.374821239569652 3.783580526558086 0.000000000000000
3.340522322839871 3.880117344953437 0.000000000000000
3.335816724048372 4.015062488126329 0.000000000000000
3.327383851039684 4.151013937321860 0.000000000000000
3.315187352077447 4.287882090336176 0.000000000000000
3.329076871756362 4.465663129025395 0.000000000000000
3.337719851664268 4.645215408547407 0.000000000000000
3.312600288885073 4.785298248393567 0.000000000000000
3.339040192666748 5.009112754945331 0.000000000000000
3.331611963863384 5.193193788242681 0.000000000000000
3.239958847494739 5.250863421051871 0.000000000000000
3.121802825639896 5.263909869842641 0.000000000000000
3.004194712680547 5.274439698043977 0.000000000000000
2.863206261129574 5.238601903774365 0.000000000000000
2.794034644634897 5.332332548198766 0.000000000000000
2.677597014846614 5.335857403087577 0.000000000000000
2.561903196648247 5.336951565360463 0.000000000000000
2.447002398785501 5.335642347490881 0.000000000000000
2.332943098399765 5.331958036184166 0.000000000000000
2.219773022065548 5.325927875075852 0.000000000000000
2.107539127210468 5.317582047065841 0.000000000000000
1.996287583924688 5.306951656296497 0.000000000000000
1.869283830501396 5.246968454357814 0.000000000000000
1.760961451585074 5.231578611282773 0.000000000000000
1.653759947747988 5.214017456359786 0.000000000000000
1.604833418479043 5.385991988383650 0.000000000000000
1.604105705184655 5.750456059009062 0.000000000000000
1.578463309685551 6.068060116707525 0.000000000000000
1.565616425481323 6.483652150467596 0.000000000000000
1.549521097844927 6.949344168145182 0.000000000000000
1.537578816797599 7.514303120192537 0.000000000000000
1.524574128331381 8.179124264077581 0.000000000000000
1.496969333482089 8.894913311247850 0.000000000000000
1.466968668114166 9.760374118176584 0.000000000000000
1.439825491017259 10.875100117029586 0.000000000000000
1.362579762097205 11.892193926770751 0.000000000000000
1.890966656476633 19.528662143221528 0.000000000000000
0.853660189551308 10.786272028869623 0.000000000000000
0.664230764657091 10.799592468759322 0.000000000000000
0.478983033210798 10.909490146376969 0.000000000000000
0.961321604169894 36.507345298903296 0.000000000000000
0.326616139165492 37.218566897418775 0.000000000000000
-0.326177374873226 37.168568822596882 0.000000000000000
-0.974483181444959 37.007172041768897 0.000000000000000
-1.625998263839216 37.034322319248560 0.000000000000000
-1.216733249122322 19.782617627616428 0.000000000000000
-0.936501520330318 11.832998981763625 0.000000000000000
-1.139206212005801 11.764973829402571 0.000000000000000
-1.060922588366413 9.259419164369541 0.000000000000000
-1.059197056746519 8.000187597486669 0.000000000000000
-1.043375891607037 6.942029008064805 0.000000000000000
-1.032278187833548 6.133742882035657 0.000000000000000
-1.011496296681399 5.426534367513009 0.000000000000000
-1.006342328595038 4.918096696657957 0.000000000000000
-1.005447678657803 4.509265457420049 0.000000000000000
-0.990539927365995 4.102100760865556 0.000000000000000
-0.974266827509264 3.745357679690291 0.000000000000000
-0.972673811183996 3.486876203285227 0.000000000000000
-0.976606813380486 3.277596548091118 0.000000000000000
-0.958394704636403 3.021651798292600 0.000000000000000
-0.963424562280240 2.862204240230792 0.000000000000000
-0.946387863916326 2.656454405976488 0.000000000000000
-0.940050767033318 2.499040727039091 0.000000000000000
-0.928496258840976 2.342710971784252 0.000000000000000
-0.930996657434771 2.233751379147931 0.000000000000000
-0.929970444722930 2.125454062533894 0.000000000000000
-0.925442133782592 2.017909030907965 0.000000000000000
-0.939076002825455 1.956281232573007 0.000000000000000
-0.905987599663344 1.805432488146885 0.000000000000000
-0.928250712503288 1.771539052557730 0.000000000000000
-0.935218125494585 1.711101124348411 0.000000000000000
-0.940357488318458 1.650977829700750 0.000000000000000
-0.918177301658793 1.548208785247835 0.000000000000000
-0.918951050748103 1.489304860103853 0.000000000000000
-0.917948191015843 1.430863766614677 0.000000000000000
-0.942918326832803 1.414533502227086 0.000000000000000
-0.910680491789710 1.315545910211290 0.000000000000000
-0.933627930535460 1.299360953439834 0.000000000000000
-0.926403797346923 1.242689021542076 0.000000000000000
-0.886904365408173 1.147127127488460 0.000000000000000
-0.906899733836004 1.131385377653514 0.000000000000000
-0.894663489208375 1.076836682639245 0.000000000000000
-0.926472987975120 1.076126294889430 0.000000000000000
-0.911933944420202 1.022387637353960 0.000000000000000
-0.916163500342404 0.991536404092333 0.000000000000000
-0.947252261700656 0.989754086984738 0.000000000000000
-0.985596377769073 0.994283551170632 0.000000000000000
-1.002894157655286 0.976833306424845 0.000000000000000
-0.983458629812208 0.924829240156200 0.000000000000000
-0.999537823005447 0.907427209412156 0.000000000000000
-0.977705093919143 0.856792127254073 0.000000000000000
-0.992591128970934 0.839501548949260 0.000000000000000
-0.968434061111078 0.790338831944822 0.000000000000000
-0.942869064565980 0.742292346103928 0.000000000000000
-0.955751005516020 0.725630770747160 0.000000000000000
-0.968338553588241 0.708745684737928 0.000000000000000
-0.980627831533776 0.691642289063764 0.000000000000000
-0.992615053977692 0.674325851956503 0.000000000000000
-1.004296528584962 0.656801707269549 0.000000000000000
-0.973349129814555 0.612447117300137 0.000000000000000
-0.983947606237954 0.595270617600600 0.000000000000000
-0.994243004594207 0.577910761117566 0.000000000000000
-0.960569886117493 0.536008856162123 0.000000000000000
-0.969828847160475 0.519068403214244 0.000000000000000
-0.978789079032720 0.501968065484528 0.000000000000000
-0.942563829881492 0.462680696160034 0.000000000000000
-0.950538662483435 0.446067540989257 0.000000000000000
-0.958220707726838 0.429316986949593 0.000000000000000
-0.965607599368408 0.412434193589693 0.000000000000000
-0.972697062078821 0.395424361190900 0.000000000000000
-0.979486912143576 0.378292729165447 0.000000000000000
-0.939023864891076 0.343851975659622 0.000000000000000
-0.944913811009144 0.327319247469768 0.000000000000000
-0.950512702349860 0.310685697565186 0.000000000000000
-1.003609755044760 0.308654271927342 0.000000000000000
-0.960830512542361 0.277136656123986 0.000000000000000
-0.994512640874041 0.268038443402698 0.000000000000000
-0.921466354775299 0.231083874420357 0.000000000000000
-0.954602460817662 0.221662224568970 0.000000000000000
-0.977903663510889 0.209056032900229 0.000000000000000
-0.932350868587198 0.182268641967557 0.000000000000000
-0.935406071731469 0.165877909824973 0.000000000000000
-0.938173148696643 0.149436083542850 0.000000000000000
-1.019863983763568 0.144143867791539 0.000000000000000
-0.873367211953101 0.107841147458972 0.000000000000000
-0.825402275800307 0.087241521672162 0.000000000000000
-0.876613838630410 0.077124431418702 0.000000000000000
-0.927709194359724 0.065235348549939 0.000000000000000
-0.848822055608703 0.044733856442474 0.000000000000000
-0.849476401959763 0.029830228183746 0.000000000000000
-0.899861389844997 0.015794906338131 0.000000000000000
-0.850000000000000 0.000000000000000 0.000000000000000
