ply
format ascii 1.0
element vertex 180
property double x
property double y
property double z
end_header
1.620000000000000 0.000000000000000 0.000000000000000
1.569758202285161 0.027553336612074 0.000000000000000
1.569032883619798 0.055098186174684 0.000000000000000
1.567824267418428 0.082626064252569 0.000000000000000
1.616009564368551 0.113635768441830 0.000000000000000
1.613766384751436 0.141979066929884 0.000000000000000
1.561303100007809 0.165023119307583 0.000000000000000
1.558166503143600 0.192398410807484 0.000000000000000
1.554549955833788 0.219714439255065 0.000000000000000
1.599832106198487 0.254827847725702 0.000000000000000
1.545881613282533 0.274135072026534 0.000000000000000
1.540832488086211 0.301222913567436 0.000000000000000
1.584203934887640 0.338670773298372 0.000000000000000
1.578016312780216 0.366421228369114 0.000000000000000
1.619840855236578 0.406221126612628 0.000000000000000
1.564184930306743 0.421575027487740 0.000000000000000
1.556545430318624 0.448961382920858 0.000000000000000
1.548426479211915 0.476209448116471 0.000000000000000
1.539830577806773 0.503310830055602 0.000000000000000
1.578006064385271 0.546623143274513 0.000000000000000
1.568169854368098 0.574232799351569 0.000000000000000
1.529865272300442 0.590857215077461 0.000000000000000
1.547051517782505 0.628913031608384 0.000000000000000
1.535775896138325 0.655966765042655 0.000000000000000
1.569656778371583 0.703262111955524 0.000000000000000
1.557072856639532 0.730701114763354 0.000000000000000
1.499125329430563 0.735882631035484 0.000000000000000
1.574960608989013 0.807712250825104 0.000000000000000
1.490009774273820 0.797477819483702 0.000000000000000
3.196077984718202 1.783447648684882 0.000000000000000
3.207514388734354 1.864390368474929 0.000000000000000
3.174300538385051 1.920394775041937 0.000000000000000
3.224747986603005 2.029063927750889 0.000000000000000
3.146795789566215 2.057978682777919 0.000000000000000
3.110193835796767 2.112887669463711 0.000000000000000
3.072633872139166 2.167145839066461 0.000000000000000
3.074474907642664 2.250267549042920 0.000000000000000
3.034509442513363 2.303877697122232 0.000000000000000
2.954323068973402 2.325849351125644 0.000000000000000
2.951787018266564 2.408952759767817 0.000000000000000
2.909055539522505 2.460385308843602 0.000000000000000
2.903032048098379 2.544013547077478 0.000000000000000
2.931977614149310 2.661786480942324 0.000000000000000
2.884811980782476 2.712832437791521 0.000000000000000
3.015846002663394 2.937477300034713 0.000000000000000
2.999028978068748 3.025462805704925 0.000000000000000
2.980041786810093 3.113751908689211 0.000000000000000
2.992800767785186 3.239018920034954 0.000000000000000
3.002059919222708 3.365670251435299 0.000000000000000
2.975152693779260 3.455729510349155 0.000000000000000
2.977951328365022 3.584327815070631 0.000000000000000
2.977132919351296 3.714065101814295 0.000000000000000
2.942075860422974 3.805297574634133 0.000000000000000
2.934608158047349 3.936518126304253 0.000000000000000
2.923422457489158 4.068623985458481 0.000000000000000
2.908485820653389 4.201524750737307 0.000000000000000
2.917500234788554 4.376733071596751 0.000000000000000
2.867238173114193 4.469345059249374 0.000000000000000
2.735848556798637 4.433873326366329 0.000000000000000
2.632108264755206 4.438198517710462 0.000000000000000
2.529066718582800 4.440261426195177 0.000000000000000
2.426771135898768 4.440088045745107 0.000000000000000
2.371680570445901 4.526282279284999 0.000000000000000
2.269454086285405 4.522519004962000 0.000000000000000
2.146459435029612 4.471499960166875 0.000000000000000
2.046811205798435 4.463033036827977 0.000000000000000
1.948127741962690 4.452459803411520 0.000000000000000
1.869687502121068 4.485963513495432 0.000000000000000
1.753826266699620 4.425120724481364 0.000000000000000
1.675895749467639 4.455218674421750 0.000000000000000
1.563889165195063 4.389743805620721 0.000000000000000
1.454707286092018 4.321738852798812 0.000000000000000
1.363520541927500 4.298943094731743 0.000000000000000
1.287864540452043 4.322210652599691 0.000000000000000
1.198377126486359 4.295985598522683 0.000000000000000
1.173148169558958 4.509913898541797 0.000000000000000
1.152500247243373 4.772823397120824 0.000000000000000
1.122967537202222 5.036322458936677 0.000000000000000
1.094547632296596 5.349164933018416 0.000000000000000
1.064636500673717 5.711624035371482 0.000000000000000
1.022320520426793 6.074574944266825 0.000000000000000
0.967575078968918 6.437693567307960 0.000000000000000
0.913508242249783 6.899790046903001 0.000000000000000
0.849193402276119 7.411509331136993 0.000000000000000
0.791276057577633 8.171779622622260 0.000000000000000
0.706912689314207 8.932069998028821 0.000000000000000
0.411921296751302 6.697344312881243 0.000000000000000
0.292127014760432 6.653590144218922 0.000000000000000
0.180576840213732 6.857622912116008 0.000000000000000
0.059759696607120 6.809737790742123 0.000000000000000
-0.164624362459557 18.759277673175074 0.000000000000000
-0.497770852542523 18.903447415176924 0.000000000000000
-1.217634523986421 27.733282643170760 0.000000000000000
-2.213693287757363 35.991987469820806 0.000000000000000
-2.856842464293245 36.097126632658878 0.000000000000000
-3.466772203540497 35.802547262572801 0.000000000000000
-4.093430931078991 35.726256775829256 0.000000000000000
-3.492594012394654 26.379800739667935 0.000000000000000
-2.795712324947060 18.601077726737746 0.000000000000000
-1.818933912967152 10.808009965773442 0.000000000000000
-1.999171122607620 10.725269918399807 0.000000000000000
-1.836274049786962 8.974056920594998 0.000000000000000
-1.786737108610511 8.013218486021342 0.000000000000000
-1.680631725104389 6.959962428388004 0.000000000000000
-1.613708104479169 6.203551092200197 0.000000000000000
-1.547679876359065 5.548178710199698 0.000000000000000
-1.516310578669702 5.088899903615157 0.000000000000000
-1.469336991966220 4.632563955741967 0.000000000000000
-1.422805810519824 4.226963877956733 0.000000000000000
-1.396089898543233 3.918741251369570 0.000000000000000
-1.359024704400228 3.612845395644529 0.000000000000000
-1.330107735879334 3.356026431802043 0.000000000000000
-1.331094394514177 3.193710649525554 0.000000000000000
-1.306768814567566 2.986629415457110 0.000000000000000
-1.296452718947685 2.826890579335033 0.000000000000000
-1.259313902406486 2.623400178243065 0.000000000000000
-1.237884047064767 2.466828548161090 0.000000000000000
-1.234573447629372 2.356146939901781 0.000000000000000
-1.227773539110840 2.246368655554837 0.000000000000000
-1.217515484875477 2.137581821612551 0.000000000000000
-1.203832462174862 2.029873740658273 0.000000000000000
-1.186759642680407 1.923330847905547 0.000000000000000
-1.193332648320596 1.860122896599080 0.000000000000000
-1.186967776130705 1.780648055744686 0.000000000000000
-1.161117627031881 1.677321035519395 0.000000000000000
-1.161199738603478 1.616080185840794 0.000000000000000
-1.159498946356794 1.555365614059114 0.000000000000000
-1.156033965945825 1.495220876519441 0.000000000000000
-1.150824489833274 1.435689030953425 0.000000000000000
-1.143891175487851 1.376812615660178 0.000000000000000
-1.135255633152612 1.318633628949020 0.000000000000000
-1.124940413189884 1.261193508852695 0.000000000000000
-1.112968993008550 1.204533113119574 0.000000000000000
-1.099365763579593 1.148692699493236 0.000000000000000
-1.119355886180590 1.129222033115218 0.000000000000000
-1.103183573420814 1.074516637067329 0.000000000000000
-1.121871325859852 1.054990392474480 0.000000000000000
-1.103193597243049 1.001530771869713 0.000000000000000
-1.082996411725820 0.949062048650665 0.000000000000000
-1.099485558244726 0.929909408066873 0.000000000000000
-1.076898675955518 0.878856781122642 0.000000000000000
-1.092156666455593 0.859821967570384 0.000000000000000
-1.107078248056056 0.840522309448793 0.000000000000000
-1.081311384840202 0.791432681290686 0.000000000000000
-1.054174918898810 0.743515460743546 0.000000000000000
-1.067061183026019 0.724900290853241 0.000000000000000
-1.079618768228835 0.706061835314765 0.000000000000000
-1.049524279104390 0.660377761262757 0.000000000000000
-1.060952201508750 0.641857013760648 0.000000000000000
-1.072053326692884 0.623138559813723 0.000000000000000
-1.039161967708924 0.579864126211751 0.000000000000000
-1.049178480109968 0.561537636204500 0.000000000000000
-1.058871821862670 0.543038179933262 0.000000000000000
-1.068239007199024 0.524371455648039 0.000000000000000
-1.032013404982015 0.484301901645479 0.000000000000000
-1.040353911246281 0.466115585830987 0.000000000000000
-1.048373965028557 0.447785695897381 0.000000000000000
-1.009752188253252 0.410488146379125 0.000000000000000
-1.063442933184454 0.410717820236771 0.000000000000000
-1.023536012731273 0.374798653468988 0.000000000000000
-1.029956053999967 0.356777979742047 0.000000000000000
-1.036058845561348 0.338647410346053 0.000000000000000
-1.041842507617893 0.320412529905527 0.000000000000000
-0.999263733044055 0.288222122368946 0.000000000000000
-1.004168103406798 0.270640758387191 0.000000000000000
-1.008763167332958 0.252976030944391 0.000000000000000
-1.013047509439151 0.235233381175233 0.000000000000000
-0.968124626875780 0.206965472571227 0.000000000000000
-0.971607747264554 0.189943111103033 0.000000000000000
-1.004330729648525 0.178100492654181 0.000000000000000
-0.977675176010186 0.155728129165707 0.000000000000000
-0.980257615462070 0.138546047683130 0.000000000000000
-0.932914976404448 0.115193952967539 0.000000000000000
-0.984515967520848 0.104059164404144 0.000000000000000
-1.016075131139793 0.089394227326223 0.000000000000000
-1.017487503491310 0.071548446796707 0.000000000000000
-1.018586466730444 0.053680627730968 0.000000000000000
-0.969402482236436 0.034041554515569 0.000000000000000
-1.019842908490997 0.017900893849882 0.000000000000000
-1.020000000000000 0.000000000000000 0.000000000000000
