ply
format ascii 1.0
element vertex 180
property double x
property double y
property double z
end_header
2.670000000000000 0.000000000000000 0.000000000000000
2.689585709647824 0.047209220055082 0.000000000000000
3.188034967354877 0.111951091654294 0.000000000000000
3.185579243990309 0.167883531825284 0.000000000000000
3.162191554968091 0.222361349358396 0.000000000000000
3.227532769502872 0.283958133859767 0.000000000000000
3.222052257340957 0.340557265322655 0.000000000000000
3.245353162598454 0.400727900216862 0.000000000000000
3.237820608647444 0.457621793862460 0.000000000000000
3.199664212396974 0.509655695451405 0.000000000000000
3.219766162696741 0.570969226450169 0.000000000000000
3.179807172865812 0.621631999973562 0.000000000000000
3.217303052950825 0.687794348241755 0.000000000000000
3.204736832745008 0.744151753910113 0.000000000000000
3.191183481274455 0.800279944045238 0.000000000000000
3.128369860613487 0.843150054975479 0.000000000000000
3.161132386264367 0.911779598647915 0.000000000000000
3.144643899140247 0.967116718705673 0.000000000000000
3.174712425848532 1.037690229867722 0.000000000000000
3.156012128770542 1.093246286549025 0.000000000000000
3.089388515491641 1.131272999920158 0.000000000000000
3.041073651036245 1.174508854361294 0.000000000000000
3.047784127846970 1.238996331731487 0.000000000000000
3.025570478021011 1.292293806581039 0.000000000000000
3.002424884210760 1.345193225775392 0.000000000000000
2.996459974114448 1.406174819689942 0.000000000000000
2.836668288024299 1.392448571300676 0.000000000000000
2.856284494268211 1.464834082004850 0.000000000000000
2.830136908531930 1.514735976652476 0.000000000000000
2.846779844311841 1.588535337353201 0.000000000000000
2.818462778240969 1.638251374994143 0.000000000000000
2.789277562031069 1.687462794241702 0.000000000000000
2.801552712770590 1.762782572403003 0.000000000000000
2.812030280037894 1.839044780354737 0.000000000000000
2.903399032884748 1.972403116972772 0.000000000000000
2.868336407236296 2.023053695511510 0.000000000000000
2.872737708978447 2.102612198055852 0.000000000000000
2.875217608260693 2.182939235331038 0.000000000000000
2.875750646926237 2.263991655616983 0.000000000000000
2.835574930933235 2.314112099934439 0.000000000000000
2.832702375755510 2.395808266616736 0.000000000000000
2.827823963950753 2.478106460365626 0.000000000000000
2.820917856037594 2.560961235452084 0.000000000000000
2.811963193388979 2.644326568150321 0.000000000000000
2.800940111737261 2.728155877229389 0.000000000000000
2.752629883626480 2.776891917912267 0.000000000000000
2.772614284247906 2.897017437086714 0.000000000000000
2.755276897326044 2.981953926381386 0.000000000000000
2.735801833260605 3.067162912061880 0.000000000000000
2.746796675616378 3.190487113721479 0.000000000000000
2.722333188591200 3.276660191459418 0.000000000000000
2.726953682431019 3.401958790737464 0.000000000000000
2.697412587206926 3.488848711878696 0.000000000000000
2.635768223419310 3.535650700000357 0.000000000000000
2.514960237879894 3.500153568328553 0.000000000000000
2.424686809390105 3.502640985937559 0.000000000000000
2.335109503509470 3.503050614338845 0.000000000000000
2.273271696574529 3.543492033792818 0.000000000000000
2.210733670656864 3.582841977735556 0.000000000000000
2.122009763833655 3.578082525906109 0.000000000000000
2.009395475038389 3.527878941360551 0.000000000000000
1.923192145247838 3.518725901865193 0.000000000000000
1.861142678569093 3.551935800378248 0.000000000000000
1.776094502310317 3.539362699535478 0.000000000000000
1.670430124841593 3.479836662549221 0.000000000000000
1.588258797167421 3.463168201693400 0.000000000000000
1.507193479378542 3.444701411692863 0.000000000000000
1.446507203287081 3.470621977519099 0.000000000000000
1.366952825515880 3.448991152904592 0.000000000000000
1.253401022711092 3.332054302718788 0.000000000000000
1.194730778561036 3.353538186268190 0.000000000000000
1.129312235255646 3.355034109409604 0.000000000000000
1.055141173243232 3.326676585501947 0.000000000000000
0.988029115291368 3.315931010641891 0.000000000000000
0.969986866954205 3.477243948580020 0.000000000000000
0.946574488742850 3.638900484660334 0.000000000000000
0.765203830145294 3.168921440858225 0.000000000000000
0.698590270236266 3.133061064571073 0.000000000000000
0.623451123890552 3.046868670638695 0.000000000000000
0.560720773160340 3.008187529816995 0.000000000000000
0.516139093916774 3.066871441017828 0.000000000000000
0.752062964605641 5.003798686724774 0.000000000000000
0.703506347479718 5.313631415431047 0.000000000000000
0.649985834718048 5.672884488041854 0.000000000000000
0.588879014835486 6.081555845824849 0.000000000000000
0.501781775004281 6.340174686100815 0.000000000000000
0.433407504480505 7.046684180170129 0.000000000000000
0.335989929889626 7.652627703410952 0.000000000000000
0.216113098856376 8.207155117853123 0.000000000000000
0.081697911220600 9.309641531836883 0.000000000000000
-0.087401847020106 9.959616504521522 0.000000000000000
-0.276656354321624 10.506358135034874 0.000000000000000
-0.774619081181563 17.643003295331255 0.000000000000000
-1.090271569344724 17.726502980144691 0.000000000000000
-1.401201937747806 17.704638746092840 0.000000000000000
-4.818977208146367 49.767232780890744 0.000000000000000
-3.985289680118896 34.782431861006181 0.000000000000000
-4.601666519149063 34.756701012129191 0.000000000000000
-5.203502844040221 34.621144668425757 0.000000000000000
-5.802000875668945 34.475185073306527 0.000000000000000
-6.415305316452132 34.417204385259140 0.000000000000000
-3.570310133919846 17.448466567226738 0.000000000000000
-3.875979038289062 17.383120735205857 0.000000000000000
-2.314389498537609 9.584529265908619 0.000000000000000
-2.482240547607582 9.542435845412470 0.000000000000000
-2.420936751040829 8.678661489392237 0.000000000000000
-2.258760202877089 7.580639969415422 0.000000000000000
-2.134468963638172 6.729609367806232 0.000000000000000
-1.997032370819305 5.932913425114159 0.000000000000000
-1.949827478494275 5.473049680398366 0.000000000000000
-1.887143112845913 5.016800860273232 0.000000000000000
-1.827516445972714 4.611050166686463 0.000000000000000
-1.754274693348164 4.209052185501886 0.000000000000000
-1.727660610670616 3.948580607552191 0.000000000000000
-1.692475253674470 3.690410209678531 0.000000000000000
-1.670430124841594 3.479836662549221 0.000000000000000
-1.619116452863699 3.226540238717948 0.000000000000000
-1.582667464818105 3.020474084610929 0.000000000000000
-1.539512914275701 2.816735697004307 0.000000000000000
-1.514470481186569 2.658943241518051 0.000000000000000
-1.509891562727793 2.545943335740884 0.000000000000000
-1.501828574365471 2.433949657084011 0.000000000000000
-1.463317410384080 2.280965180897514 0.000000000000000
-1.447656960608009 2.171724965183939 0.000000000000000
-1.428630021495108 2.063762646643961 0.000000000000000
-1.435452943198269 1.997767465913745 0.000000000000000
-1.410524491444347 1.892094252154386 0.000000000000000
-1.412930402822675 1.827492182412651 0.000000000000000
-1.401003726753551 1.747795342030257 0.000000000000000
-1.399509315261673 1.684480239271391 0.000000000000000
-1.363611651315494 1.583876025576696 0.000000000000000
-1.391198499151986 1.559700848226114 0.000000000000000
-1.384424844961855 1.498321677295080 0.000000000000000
-1.341364516568812 1.401549583029483 0.000000000000000
-1.330555109988248 1.342282794080353 0.000000000000000
-1.318089464346947 1.283838059872653 0.000000000000000
-1.303993294343594 1.226255066577481 0.000000000000000
-1.288293194095909 1.169572847686778 0.000000000000000
-1.308620664168699 1.146783308786221 0.000000000000000
-1.290368467662214 1.091352013634038 0.000000000000000
-1.309322850622177 1.068538100789399 0.000000000000000
-1.249301510549923 0.983537358587705 0.000000000000000
-1.266370082308726 0.961460771239987 0.000000000000000
-1.242701143771576 0.909556962080340 0.000000000000000
-1.258472383801680 0.887607604298497 0.000000000000000
-1.232497025355634 0.837287932845992 0.000000000000000
-1.247001522992995 0.815528786526356 0.000000000000000
-1.261121916020598 0.793518438936700 0.000000000000000
-1.232073524332742 0.745382338560752 0.000000000000000
-1.244965153578833 0.723644779138517 0.000000000000000
-1.213811037912104 0.677320281877591 0.000000000000000
-1.225510997775509 0.655913709516181 0.000000000000000
-1.192343059912587 0.611488370681152 0.000000000000000
-1.202890982896380 0.590468697956615 0.000000000000000
-1.213068388312193 0.569267147548194 0.000000000000000
-1.222872141289489 0.547890250011862 0.000000000000000
-1.186317907795472 0.506704866410195 0.000000000000000
-1.195027819125408 0.485807072320248 0.000000000000000
-1.203369634919251 0.464759638688978 0.000000000000000
-1.164389592464935 0.426376449817931 0.000000000000000
-1.171693125651339 0.405875866862512 0.000000000000000
-1.178635750913826 0.385250264980831 0.000000000000000
-1.185215329767145 0.364505997323719 0.000000000000000
-1.143388309925409 0.329792620787544 0.000000000000000
-1.149000041398163 0.309675483154574 0.000000000000000
-1.154257854929058 0.289462958484447 0.000000000000000
-1.159160130992875 0.269161272690892 0.000000000000000
-1.193042469483285 0.255048360138280 0.000000000000000
-1.167892140651332 0.228315456780413 0.000000000000000
-1.201258323697255 0.213022157880491 0.000000000000000
-1.125807778435972 0.179323300251420 0.000000000000000
-1.128781496592687 0.159537873089665 0.000000000000000
-1.161181406801282 0.143379707417043 0.000000000000000
-1.113795842043788 0.117723499123881 0.000000000000000
-1.165497944542704 0.102540437227138 0.000000000000000
-1.167118018710620 0.082070277207988 0.000000000000000
-1.118447885037350 0.058943434371259 0.000000000000000
-1.169279282697557 0.041060431735274 0.000000000000000
-1.119827507362663 0.019655883443008 0.000000000000000
-1.120000000000000 0.000000000000000 0.000000000000000
