ply
format ascii 1.0
element vertex 180
property double x
property double y
property double z
end_header
3.090000000000000 0.000000000000000 0.000000000000000
2.909551827165490 0.051070197159958 0.000000000000000
2.908207446709308 0.102124663546707 0.000000000000000
2.885994989069590 0.152095111904411 0.000000000000000
2.902831995254620 0.204123509978843 0.000000000000000
2.948610184484105 0.259418542044725 0.000000000000000
2.893880268167341 0.305870877187940 0.000000000000000
2.888066575890367 0.356611067165465 0.000000000000000
2.930871254310836 0.414238688022288 0.000000000000000
2.923150021202173 0.465611376091407 0.000000000000000
2.944067531028518 0.522078895133335 0.000000000000000
3.081664976172423 0.602445827134872 0.000000000000000
3.119512686599736 0.666888744951732 0.000000000000000
3.058624211191284 0.710223862394455 0.000000000000000
3.094187022877055 0.775955325685200 0.000000000000000
3.080092547949698 0.830138480053018 0.000000000000000
3.113090860637249 0.897922765841715 0.000000000000000
3.096852958423829 0.952418896232943 0.000000000000000
3.079661155613547 1.006621660111204 0.000000000000000
3.108766438220085 1.076880324175537 0.000000000000000
3.089388515491641 1.131272999920158 0.000000000000000
3.069058991383205 1.185317218051736 0.000000000000000
3.019992783216147 1.227698492840318 0.000000000000000
3.117533106532288 1.331573253589581 0.000000000000000
3.048054441721562 1.365636891820611 0.000000000000000
3.068881967446520 1.440160918051028 0.000000000000000
3.061088247519893 1.502610641814970 0.000000000000000
3.078736557684738 1.578917733251334 0.000000000000000
3.094635685030241 1.656300086619997 0.000000000000000
3.065091182065817 1.710355531935501 0.000000000000000
3.077830518569892 1.789010703981334 0.000000000000000
3.045959546267058 1.842750781441859 0.000000000000000
3.055469877070039 1.922551385611734 0.000000000000000
3.063104412184135 2.003245207172124 0.000000000000000
3.068834875214363 2.084790758965523 0.000000000000000
3.031774379158592 2.138327410355471 0.000000000000000
3.034127467909820 2.220736478845507 0.000000000000000
2.954863525387028 2.243408466226635 0.000000000000000
2.836464435902655 2.233062807862653 0.000000000000000
2.719362843599906 2.219271440101060 0.000000000000000
2.641819466338023 2.234365661049571 0.000000000000000
2.602199711507873 2.280385200230071 0.000000000000000
2.598798339814161 2.359310744471605 0.000000000000000
2.229172894241004 2.096279611020721 0.000000000000000
2.084587141983486 2.030417801211642 0.000000000000000
2.048632470934286 2.066689381361815 0.000000000000000
2.150331776561343 2.246814022279222 0.000000000000000
2.449889063878576 2.651441791683942 0.000000000000000
2.303132443572188 2.582088485580075 0.000000000000000
2.159595486054682 2.508435236678882 0.000000000000000
2.083287839156646 2.507491132431385 0.000000000000000
1.945143567055153 2.426626568622365 0.000000000000000
1.810508221798753 2.341721584390236 0.000000000000000
1.649596439146779 2.212788193197502 0.000000000000000
1.598837831041975 2.225155632765716 0.000000000000000
1.531081576821451 2.211761561542731 0.000000000000000
1.492029587753082 2.238291247641685 0.000000000000000
1.398521067488844 2.179963032665890 0.000000000000000
1.360047555107192 2.204171192953703 0.000000000000000
1.356862012451327 2.287908538199579 0.000000000000000
1.365992983031023 2.398262531565301 0.000000000000000
1.347673298789632 2.465740594573864 0.000000000000000
1.350604786692284 2.577589321471497 0.000000000000000
1.350011225240923 2.690273163030755 0.000000000000000
1.367502381994672 2.848778200428896 0.000000000000000
1.358982592851914 2.963235784126111 0.000000000000000
1.366896214010858 3.124051014327836 0.000000000000000
1.350329862642993 3.239862537524478 0.000000000000000
1.348530280697607 3.402508792353318 0.000000000000000
1.341420757452039 3.566046880156905 0.000000000000000
1.345750118547683 3.777440485094225 0.000000000000000
1.343052121589341 3.990026440851535 0.000000000000000
1.333287270487866 4.203622848728822 0.000000000000000
1.330698172617854 4.465964887165091 0.000000000000000
1.319289616826911 4.729437060257035 0.000000000000000
1.311609863391024 5.042199873691580 0.000000000000000
1.269862797879154 5.258854292957976 0.000000000000000
1.286189562958359 5.768346072154218 0.000000000000000
1.264944241720059 6.181910389623847 0.000000000000000
1.266202791679068 6.792998637593278 0.000000000000000
1.254666093251064 7.455160158872920 0.000000000000000
1.235107358868158 8.217701005273296 0.000000000000000
1.182573169923929 8.932055793476442 0.000000000000000
1.019942745897323 8.901759196647113 0.000000000000000
1.605683205754368 16.582441962592796 0.000000000000000
1.322305432243986 16.707755933812837 0.000000000000000
1.031951862651174 16.778294768931993 0.000000000000000
0.888662660517470 20.240500949230533 0.000000000000000
0.880772751246568 33.448405632565830 0.000000000000000
0.299325000186323 34.108686643496895 0.000000000000000
-0.298886235894057 34.058688568675002 0.000000000000000
-0.895250486249138 33.998215049717984 0.000000000000000
-1.496164035056802 34.077171144040150 0.000000000000000
-2.093984416123229 34.045665352068433 0.000000000000000
-1.330195082794369 16.807444215040835 0.000000000000000
-1.620140137378809 16.731743660935464 0.000000000000000
-1.902147687940210 16.601383501782728 0.000000000000000
-1.169448051500803 8.832920879009444 0.000000000000000
-1.331716237720662 8.860481468983000 0.000000000000000
-1.337646654974019 7.948226306946527 0.000000000000000
-1.312013312362104 7.038765592643686 0.000000000000000
-1.325084221516574 6.475820550778706 0.000000000000000
-1.307952499725843 5.865949220583222 0.000000000000000
-1.258126542815577 5.210251203374261 0.000000000000000
-1.299022436679019 4.993810239587054 0.000000000000000
-1.292420174529011 4.633114513204956 0.000000000000000
-1.287864540452044 4.322210652599691 0.000000000000000
-1.287937363328415 4.060642479724440 0.000000000000000
-1.279249170444954 3.800476491167376 0.000000000000000
-1.278630411886951 3.589039463393765 0.000000000000000
-1.253401022711091 3.332054302718789 0.000000000000000
-1.256417556606241 3.170096989596944 0.000000000000000
-1.273387990127724 3.055254985528781 0.000000000000000
-1.246641415124273 2.849207816586384 0.000000000000000
-1.254766136344865 2.735993776140980 0.000000000000000
-1.237676206488849 2.578324573805899 0.000000000000000
-1.237884047064767 2.466828548161090 0.000000000000000
-1.234573447629372 2.356146939901781 0.000000000000000
-1.251753491046598 2.290243043358642 0.000000000000000
-1.217515484875477 2.137581821612551 0.000000000000000
-1.229337387220940 2.072879540248490 0.000000000000000
-1.228768833571749 1.991413355796009 0.000000000000000
-1.236530210250754 1.927457662086830 0.000000000000000
-1.242433560062047 1.863855908816867 0.000000000000000
-1.246493923137166 1.800653464601703 0.000000000000000
-1.219551484261944 1.697290245430783 0.000000000000000
-1.219266933282402 1.635539099319893 0.000000000000000
-1.247782693401843 1.613889200052731 0.000000000000000
-1.213369299063344 1.513715608722633 0.000000000000000
-1.239747977903034 1.492187974514383 0.000000000000000
-1.200500209770579 1.394417170842642 0.000000000000000
-1.224787195425672 1.373133761117727 0.000000000000000
-1.214764937491040 1.314703824685389 0.000000000000000
-1.203079514860687 1.257059935294484 0.000000000000000
-1.224955498084419 1.235752413597786 0.000000000000000
-1.210636518883881 1.179177348469991 0.000000000000000
-1.194720113253349 1.123496262115680 0.000000000000000
-1.214253355354765 1.102356017359952 0.000000000000000
-1.195808537947260 1.047922678718443 0.000000000000000
-1.214015303895219 1.026774971407172 0.000000000000000
-1.193110763288848 0.973697440956021 0.000000000000000
-1.210015299526341 0.952608510833375 0.000000000000000
-1.186724165182391 0.900991540344390 0.000000000000000
-1.202353704038732 0.880025891882927 0.000000000000000
-1.217612890821106 0.858789175587507 0.000000000000000
-1.191138064773230 0.809191022347804 0.000000000000000
-1.205155834301955 0.788162048723458 0.000000000000000
-1.176482861254114 0.740262167867122 0.000000000000000
-1.189293193626744 0.719501007360726 0.000000000000000
-1.201737196857346 0.698518224307318 0.000000000000000
-1.213811037912104 0.677320281877591 0.000000000000000
-1.181427868359124 0.632319691188261 0.000000000000000
-1.192343059912587 0.611488370681152 0.000000000000000
-1.202890982896380 0.590468697956615 0.000000000000000
-1.167804642479649 0.548025836072515 0.000000000000000
-1.177242583778687 0.527446583966643 0.000000000000000
-1.186317907795472 0.506704866410195 0.000000000000000
-1.195027819125408 0.485807072320248 0.000000000000000
-1.156727401007652 0.446745699204909 0.000000000000000
-1.164389592464935 0.426376449817931 0.000000000000000
-1.171693125651339 0.405875866862512 0.000000000000000
-1.207151131984322 0.394570835907787 0.000000000000000
-1.185215329767145 0.364505997323719 0.000000000000000
-1.220254750928798 0.351963553277463 0.000000000000000
-1.177966428996436 0.317482428108050 0.000000000000000
-1.154257854929058 0.289462958484447 0.000000000000000
-1.188382655303620 0.275946850994024 0.000000000000000
-1.193042469483285 0.255048360138280 0.000000000000000
-1.246405898006044 0.243664395051365 0.000000000000000
-1.201258323697255 0.213022157880491 0.000000000000000
-1.204811833063058 0.191907391497134 0.000000000000000
-1.158486272818810 0.163736238170972 0.000000000000000
-1.161181406801282 0.143379707417043 0.000000000000000
-1.213241899369126 0.128234525831370 0.000000000000000
-1.165497944542704 0.102540437227138 0.000000000000000
-1.216994857117057 0.085577554011748 0.000000000000000
-1.168378594190803 0.061574837691405 0.000000000000000
-1.219248482812837 0.042815151040201 0.000000000000000
-1.219812106234329 0.021410873036134 0.000000000000000
-1.170000000000000 0.000000000000000 0.000000000000000
