ply
format ascii 1.0
element vertex 180
property double x
property double y
property double z
end_header
3.140000000000000 0.000000000000000 0.000000000000000
3.139516404570323 0.055106673224148 0.000000000000000
3.188034967354877 0.111951091654294 0.000000000000000
3.135648534836856 0.165252128505139 0.000000000000000
3.182142290330666 0.223764260079900 0.000000000000000
3.177725165035235 0.279576063892795 0.000000000000000
3.172329228678287 0.335301751968910 0.000000000000000
3.165956143329990 0.390924159538774 0.000000000000000
3.158607872044448 0.446426153645642 0.000000000000000
3.199664212396974 0.509655695451405 0.000000000000000
3.190227023589431 0.565730976666223 0.000000000000000
3.228878271212507 0.631225086392907 0.000000000000000
3.217303052950825 0.687794348241755 0.000000000000000
3.204736832745008 0.744151753910113 0.000000000000000
3.191183481274455 0.800279944045238 0.000000000000000
3.195958098342790 0.861366259866925 0.000000000000000
3.036224419633860 0.875751833351797 0.000000000000000
2.924805571844728 0.899506735331112 0.000000000000000
2.813517598955586 0.919629664792951 0.000000000000000
2.702453499486153 0.936133047763536 0.000000000000000
2.685608253588478 0.983416650386520 0.000000000000000
2.714578013655053 1.048411277972812 0.000000000000000
3.251587321806342 1.321847150266723 0.000000000000000
3.227888260745820 1.378708589999832 0.000000000000000
3.248824494769090 1.455589022419574 0.000000000000000
3.268042449109715 1.533622688544015 0.000000000000000
3.824116109804910 1.877161681563569 0.000000000000000
3.746092747934320 1.921168686990784 0.000000000000000
3.932215143941560 2.104586434850480 0.000000000000000
1.781420516072441 0.994052787791573 0.000000000000000
1.720472677515193 1.000036882281701 0.000000000000000
1.659876831392722 1.004195650561013 0.000000000000000
1.641997662469772 1.033171658749796 0.000000000000000
1.539921343830275 1.007095951146642 0.000000000000000
1.522009749432461 1.033966306333305 0.000000000000000
1.544488834665698 1.089336605275429 0.000000000000000
1.565480661634322 1.145805523659650 0.000000000000000
1.545130792250899 1.173103079374575 0.000000000000000
1.524304987715000 1.200039292868018 0.000000000000000
1.541747025288835 1.258219420456157 0.000000000000000
1.595781122730193 1.349660182541504 0.000000000000000
1.534244916611579 1.344504568921776 0.000000000000000
1.547432629689913 1.404831753830671 0.000000000000000
1.558964050220833 1.466025610321681 0.000000000000000
1.568813003760768 1.528046386478865 0.000000000000000
1.576954204430516 1.590853681873013 0.000000000000000
1.583363269558031 1.654406466565730 0.000000000000000
1.588016733926833 1.718663100426710 0.000000000000000
1.590892063623564 1.783581352756179 0.000000000000000
1.624589957787359 1.887010193151184 0.000000000000000
1.572051559609003 1.892155885208959 0.000000000000000
1.619910559058793 2.020888364222484 0.000000000000000
1.596427857734711 2.064828829479228 0.000000000000000
1.619712445683975 2.172701450567113 0.000000000000000
1.610508180173668 2.241397644683714 0.000000000000000
1.656300144442536 2.392649124196784 0.000000000000000
1.641787204367703 2.462952450936575 0.000000000000000
1.652306743828518 2.575554779906419 0.000000000000000
1.659363040208003 2.689259061673244 0.000000000000000
1.662921113004258 2.803978133282191 0.000000000000000
1.687694229034706 2.963070736462927 0.000000000000000
1.707372577826011 3.123856411630945 0.000000000000000
1.698698803881017 3.241916466180645 0.000000000000000
1.731243631039854 3.449984853587612 0.000000000000000
1.756980908512142 3.660139080297885 0.000000000000000
1.775848418880108 3.872203816066636 0.000000000000000
1.767745543632811 4.040195006799342 0.000000000000000
1.811981097734615 4.347507849498659 0.000000000000000
1.827516445972713 4.611050166686463 0.000000000000000
1.851935218949534 4.923203829297984 0.000000000000000
1.882707771833542 5.284648658697907 0.000000000000000
1.885377206316629 5.601201013166882 0.000000000000000
1.907719427840915 6.014707522784323 0.000000000000000
1.973202655105015 6.622278405646090 0.000000000000000
2.017895116572321 7.233823283611065 0.000000000000000
1.991330905839348 7.655240115335968 0.000000000000000
1.868411806121639 7.737611861727446 0.000000000000000
3.375431492636912 15.138248321338732 0.000000000000000
3.129283615412063 15.293125385424446 0.000000000000000
2.887895223858481 15.493148846377723 0.000000000000000
2.623845361679804 15.590751602087419 0.000000000000000
2.847732490483021 18.947190284119895 0.000000000000000
3.256341880778321 24.595372279261987 0.000000000000000
3.769007178198701 32.894782031360030 0.000000000000000
3.186307730026375 32.906094314724960 0.000000000000000
2.596483996130643 32.807413352134866 0.000000000000000
2.026456334688593 32.947740054874785 0.000000000000000
1.331678103322329 30.330780297070035 0.000000000000000
0.624121994383028 23.701784146686666 0.000000000000000
0.138737269215648 15.809391258683258 0.000000000000000
-0.138298504923380 15.759393183861361 0.000000000000000
-0.410904442527170 15.604590912263975 0.000000000000000
-0.346955658671923 7.902387093208959 0.000000000000000
-0.485588294679998 7.895081000728857 0.000000000000000
-0.572788629957718 7.237369217152816 0.000000000000000
-0.632249809708803 6.529460940852865 0.000000000000000
-0.678444058654916 5.921259465626873 0.000000000000000
-0.716631465902849 5.412766329898043 0.000000000000000
-0.752062964605642 5.003798686724774 0.000000000000000
-0.789974947602522 4.693989729660728 0.000000000000000
-0.795270639057477 4.266514339675084 0.000000000000000
-0.833941053178358 4.075554234680698 0.000000000000000
-0.850930827608660 3.816283103574110 0.000000000000000
-0.870830125717498 3.606349247111662 0.000000000000000
-0.883637355182821 3.396952314137705 0.000000000000000
-0.902813261209454 3.236437580949824 0.000000000000000
-0.916639728348351 3.076340619699558 0.000000000000000
-0.925138106052805 2.916799527689387 0.000000000000000
-0.928332939150827 2.757951767904506 0.000000000000000
-0.943031878583290 2.647034354891465 0.000000000000000
-0.954133924591870 2.536479539429190 0.000000000000000
-0.961656839513867 2.426379220776546 0.000000000000000
-0.965620500066643 2.316824777545994 0.000000000000000
-0.986089350870004 2.253714221479905 0.000000000000000
-0.962960058125129 2.099716153782612 0.000000000000000
-0.991006473027785 2.064462683222206 0.000000000000000
-1.004659516458362 2.002063749232190 0.000000000000000
-1.016434530191100 1.939835262550714 0.000000000000000
-1.026341942850467 1.877823798002871 0.000000000000000
-1.034393237150304 1.816075612670826 0.000000000000000
-1.015096016833888 1.711630823690662 0.000000000000000
-1.018722879115040 1.651000816343700 0.000000000000000
-1.020542400599967 1.590783834648082 0.000000000000000
-1.020570424336681 1.531024496528141 0.000000000000000
-1.047282565558167 1.512877796742984 0.000000000000000
-1.044496247286546 1.453660066660815 0.000000000000000
-1.039962972505578 1.395018643537556 0.000000000000000
-1.033702329337801 1.336996445141723 0.000000000000000
-1.057007275988170 1.318649164299613 0.000000000000000
-1.016082105600941 1.222978803854572 0.000000000000000
-1.037388768225663 1.204958316108587 0.000000000000000
-1.058375891699358 1.186566674009341 0.000000000000000
-1.079037011514387 1.167809542597636 0.000000000000000
-1.064794513152562 1.112570287559486 0.000000000000000
-1.084156015545980 1.093711906287695 0.000000000000000
-1.067365924933126 1.039629733266442 0.000000000000000
-1.085446932163103 1.020737457653880 0.000000000000000
-1.066173677872476 0.967922356706299 0.000000000000000
-1.082996411725820 0.949062048650665 0.000000000000000
-1.099485558244726 0.929909408066873 0.000000000000000
-1.076898675955518 0.878856781122642 0.000000000000000
-1.092156666455593 0.859821967570384 0.000000000000000
-1.067255289492889 0.810287694000995 0.000000000000000
-1.081311384840202 0.791432681290686 0.000000000000000
-1.054174918898810 0.743515460743546 0.000000000000000
-1.067061183026019 0.724900290853241 0.000000000000000
-1.079618768228835 0.706061835314765 0.000000000000000
-1.049524279104390 0.660377761262757 0.000000000000000
-1.103732532214748 0.667738344960674 0.000000000000000
-1.072053326692884 0.623138559813723 0.000000000000000
-1.082824235259719 0.604228165128211 0.000000000000000
-1.093261609526353 0.585131654532420 0.000000000000000
-1.085566069472653 0.556728218082840 0.000000000000000
-1.068239007199024 0.524371455648039 0.000000000000000
-1.122540896647104 0.526784524596837 0.000000000000000
-1.113361203263564 0.498825451503337 0.000000000000000
-1.094355279284195 0.467425419401652 0.000000000000000
-1.102390003689330 0.448147609349686 0.000000000000000
-1.138070507443012 0.439540123411282 0.000000000000000
-1.117438399220381 0.409183851034950 0.000000000000000
-1.124447435100882 0.389509904489024 0.000000000000000
-1.083584480678840 0.354181695224313 0.000000000000000
-1.118308012764160 0.343929045861896 0.000000000000000
-1.124171699674562 0.324249887665064 0.000000000000000
-1.129689116332648 0.304470853185589 0.000000000000000
-1.134858563249578 0.284598034812440 0.000000000000000
-1.110455923808300 0.257851975519006 0.000000000000000
-1.144147286307740 0.244595558493268 0.000000000000000
-1.148263701312654 0.224478222212675 0.000000000000000
-1.152026425185072 0.204291741573914 0.000000000000000
-1.155434298921129 0.184042334468563 0.000000000000000
-1.158486272818810 0.163736238170972 0.000000000000000
-1.161181406801282 0.143379707417043 0.000000000000000
-1.163518870706457 0.122979012477625 0.000000000000000
-1.165497944542704 0.102540437227138 0.000000000000000
-1.167118018710620 0.082070277207988 0.000000000000000
-1.118447885037350 0.058943434371259 0.000000000000000
-1.169279282697557 0.041060431735274 0.000000000000000
-1.119827507362663 0.019655883443008 0.000000000000000
-1.170000000000000 0.000000000000000 0.000000000000000
