ply
format ascii 1.0
element vertex 180
property double x
property double y
property double z
end_header
2.720000000000000 0.000000000000000 0.000000000000000
1.559759742397995 0.027377837652761 0.000000000000000
1.519063683504518 0.053343466869758 0.000000000000000
1.517893558264975 0.079994660932424 0.000000000000000
1.516255887555678 0.106621214834310 0.000000000000000
1.514151175816162 0.133214926995940 0.000000000000000
1.511580071345140 0.159767605953838 0.000000000000000
1.558166503143600 0.192398410807484 0.000000000000000
1.554549955833788 0.219714439255065 0.000000000000000
1.550454572056558 0.246962790697131 0.000000000000000
1.595113511794716 0.282865488333112 0.000000000000000
1.540832488086211 0.301222913567436 0.000000000000000
1.535308751712096 0.328217971653360 0.000000000000000
1.529312105595642 0.355111931197227 0.000000000000000
1.571342626037878 0.394058817432610 0.000000000000000
1.564184930306743 0.421575027487740 0.000000000000000
1.527720514942353 0.440647283237138 0.000000000000000
1.548426479211915 0.476209448116471 0.000000000000000
1.539830577806773 0.503310830055602 0.000000000000000
1.549658650054996 0.536803565850419 0.000000000000000
1.539999138421365 0.563917240081781 0.000000000000000
1.604492846559001 0.619679518251971 0.000000000000000
1.547051517782505 0.628913031608384 0.000000000000000
1.581757210393963 0.675606488546926 0.000000000000000
1.542279043865102 0.690995912328393 0.000000000000000
1.575178354972550 0.739197639353625 0.000000000000000
1.561962918089329 0.766728010779486 0.000000000000000
1.548266361379030 0.794022212675526 0.000000000000000
1.578176033106590 0.844665856139543 0.000000000000000
1.563109178318465 0.872232593209273 0.000000000000000
1.547560850629244 0.899530662956907 0.000000000000000
1.574316169980726 0.952432988160961 0.000000000000000
1.599678135086530 1.006543523215008 0.000000000000000
1.581767032521316 1.034462688949539 0.000000000000000
1.604727670597268 1.090160127329681 0.000000000000000
1.585348327646272 1.118155033986419 0.000000000000000
1.605828101367166 1.175336593857063 0.000000000000000
1.584953750814066 1.203337694822373 0.000000000000000
1.602877409762165 1.261896988376679 0.000000000000000
1.619221750177722 1.321446527011742 0.000000000000000
1.595781122730193 1.349660182541504 0.000000000000000
1.609453000759205 1.410411655633628 0.000000000000000
1.621472468431058 1.472048584157497 0.000000000000000
1.631812837614330 1.534531479962881 0.000000000000000
1.640448300736145 1.597820194080640 0.000000000000000
1.647353945699735 1.661873935528057 0.000000000000000
1.617934519985062 1.690528878499479 0.000000000000000
1.655880696915160 1.792110241470587 0.000000000000000
1.657456585114089 1.858208187599534 0.000000000000000
1.624589957787359 1.887010193151184 0.000000000000000
1.655127455035495 1.992147862882604 0.000000000000000
1.632419520904807 2.036493679776326 0.000000000000000
1.657593676038723 2.143941045168088 0.000000000000000
1.679480432609583 2.252874935827892 0.000000000000000
1.668859925832134 2.322607704273703 0.000000000000000
1.656300144442536 2.392649124196784 0.000000000000000
1.697252988299045 2.546160304008757 0.000000000000000
1.679305220034866 2.617639008336262 0.000000000000000
1.711874528822180 2.774362196536321 0.000000000000000
1.713930963096413 2.889989732462626 0.000000000000000
1.737186728419888 3.049964306447176 0.000000000000000
1.731352529761770 3.167730799434750 0.000000000000000
1.745111339506182 3.330493418808531 0.000000000000000
1.753669066675086 3.494673776561545 0.000000000000000
1.778618604429779 3.705214684735052 0.000000000000000
1.775848418880108 3.872203816066636 0.000000000000000
1.787788010113909 4.086002206422918 0.000000000000000
1.811981097734615 4.347507849498659 0.000000000000000
1.827516445972713 4.611050166686463 0.000000000000000
1.851935218949534 4.923203829297984 0.000000000000000
1.882707771833542 5.284648658697907 0.000000000000000
1.901327944102725 5.648588500587922 0.000000000000000
1.907719427840915 6.014707522784323 0.000000000000000
1.958924777716412 6.574360327457623 0.000000000000000
1.856678462784919 6.655888001298597 0.000000000000000
1.777344651735246 6.832616335559030 0.000000000000000
3.394124964386796 14.056013507610412 0.000000000000000
3.168683593345805 14.211018411263183 0.000000000000000
2.938840346056428 14.362409875100729 0.000000000000000
2.695491036989738 14.460927635166010 0.000000000000000
2.457884238233896 14.604619305940206 0.000000000000000
2.840301038263598 18.897745633065302 0.000000000000000
3.256341880778321 24.595372279261987 0.000000000000000
3.581182900215377 31.255507179298899 0.000000000000000
3.089928185863448 31.910749659107147 0.000000000000000
2.525477141177207 31.910218821082868 0.000000000000000
1.961997711500983 31.899720453008126 0.000000000000000
1.408438204798419 32.079096025656092 0.000000000000000
0.841288019421408 31.948925403969039 0.000000000000000
0.129961983370256 14.809429762245355 0.000000000000000
-0.129523219077988 14.759431687423458 0.000000000000000
-0.387213603432073 14.704902775105900 0.000000000000000
-0.638644044281062 14.545986861835960 0.000000000000000
-0.421129671492388 6.847061398862195 0.000000000000000
-0.541230027756191 6.838616092240815 0.000000000000000
-0.637068786916950 6.579228173633756 0.000000000000000
-0.684135703442290 5.970934461143877 0.000000000000000
-0.716631465902849 5.412766329898043 0.000000000000000
-0.752062964605642 5.003798686724774 0.000000000000000
-0.781676891430227 4.644683114853367 0.000000000000000
-0.808097584848726 4.335329087089198 0.000000000000000
-0.823917723212272 4.026569207821555 0.000000000000000
-0.829167890841175 3.718679955145105 0.000000000000000
-0.847357615590342 3.509143067944231 0.000000000000000
-0.853427531074006 3.280817192286844 0.000000000000000
-0.875943818911554 3.140115033897746 0.000000000000000
-0.888083973571144 2.980504463322625 0.000000000000000
-0.879788198893354 2.773819158685005 0.000000000000000
-0.896431463578634 2.663176793062426 0.000000000000000
-0.909472025252923 2.552833844041234 0.000000000000000
-0.901322083747302 2.396083992966320 0.000000000000000
-0.924811749877321 2.333414499673996 0.000000000000000
-0.927149563809008 2.224521001548146 0.000000000000000
-0.925961951426711 2.116292622609179 0.000000000000000
-0.942116766823719 2.054267752185586 0.000000000000000
-0.956386159559565 1.992341716122740 0.000000000000000
-0.959808645187899 1.912685903284324 0.000000000000000
-0.970021994565935 1.851258309922828 0.000000000000000
-0.954402087043192 1.746200634591455 0.000000000000000
-0.960154488072531 1.685735257694450 0.000000000000000
-0.964086166741733 1.625619224510227 0.000000000000000
-0.992467134807951 1.608449248912161 0.000000000000000
-0.966545448187270 1.506615377788395 0.000000000000000
-0.992837532371010 1.489420569992050 0.000000000000000
-0.990365034821310 1.430656177354778 0.000000000000000
-0.986144501628079 1.372450007070825 0.000000000000000
-1.010078979042774 1.354931900907166 0.000000000000000
-1.003119420185795 1.297440337297293 0.000000000000000
-0.994462466758101 1.240622586530405 0.000000000000000
-0.984129838129213 1.184520350903170 0.000000000000000
-1.004766479916680 1.167066545161776 0.000000000000000
-1.025093630954095 1.149253256587663 0.000000000000000
-1.011173048526061 1.094362401553760 0.000000000000000
-0.995652012298500 1.040325463691987 0.000000000000000
-0.978556403642151 0.987181525805128 0.000000000000000
-1.031548276445437 1.004742829465555 0.000000000000000
-1.012598144769606 0.952231588012680 0.000000000000000
-0.992133839131332 0.900705526379473 0.000000000000000
-1.045392369652007 0.916108505294739 0.000000000000000
-0.984955812594234 0.833043844726574 0.000000000000000
-0.999423951066632 0.815629674567056 0.000000000000000
-1.013584244408428 0.797964272061723 0.000000000000000
-1.027432330929721 0.780053078553197 0.000000000000000
-1.000616505374516 0.732370540895859 0.000000000000000
-1.013315425918236 0.714697032032556 0.000000000000000
-1.025702222443615 0.696803380355054 0.000000000000000
-0.995927390846754 0.651328359708969 0.000000000000000
-1.007204751721148 0.633749625727968 0.000000000000000
-1.018171870802752 0.615975682560621 0.000000000000000
-1.028825369971397 0.598012004982524 0.000000000000000
-1.039161967708924 0.579864126211751 0.000000000000000
-1.005095350693583 0.537943617876580 0.000000000000000
-1.041075656789348 0.533911487833543 0.000000000000000
-1.023355015299905 0.502339041545180 0.000000000000000
-1.032013404982015 0.484301901645479 0.000000000000000
-1.040353911246281 0.466115585830987 0.000000000000000
-1.002392650772919 0.428145972393110 0.000000000000000
-1.009752188253252 0.410488146379125 0.000000000000000
-1.016800699272855 0.392703880752702 0.000000000000000
-1.070487205975827 0.391991252251969 0.000000000000000
-1.058303468330241 0.366597557166140 0.000000000000000
-1.036058845561348 0.338647410346053 0.000000000000000
-1.041842507617893 0.320412529905527 0.000000000000000
-1.028088648420326 0.296536222052665 0.000000000000000
-1.033134491005071 0.278447703340667 0.000000000000000
-1.037862104852179 0.260273416452402 0.000000000000000
-1.061751716623726 0.246542678347119 0.000000000000000
-1.046356919956651 0.223689955203245 0.000000000000000
-1.099192602965960 0.214885135793330 0.000000000000000
-1.053562628160707 0.186830908960759 0.000000000000000
-1.056679230637272 0.168312220411421 0.000000000000000
-1.059470352065066 0.149741687899948 0.000000000000000
-1.061935132715702 0.131125031569432 0.000000000000000
-1.064072813381118 0.112467985770136 0.000000000000000
-1.065882735607430 0.093776297293195 0.000000000000000
-1.067364341897747 0.075055723600468 0.000000000000000
-1.068517175883897 0.056312031051114 0.000000000000000
-1.119310082582277 0.039305712430348 0.000000000000000
-1.069835207926830 0.018778388646445 0.000000000000000
-1.070000000000000 0.000000000000000 0.000000000000000
