ply
format ascii 1.0
element vertex 180
property double x
property double y
property double z
end_header
1.620000000000000 0.000000000000000 0.000000000000000
1.619750501720995 0.028430831408637 0.000000000000000
1.569032883619798 0.055098186174684 0.000000000000000
1.567824267418428 0.082626064252569 0.000000000000000
1.616009564368551 0.113635768441830 0.000000000000000
1.613766384751436 0.141979066929884 0.000000000000000
1.561303100007809 0.165023119307583 0.000000000000000
1.607789640186390 0.198525748731290 0.000000000000000
1.554549955833788 0.219714439255065 0.000000000000000
1.599832106198487 0.254827847725702 0.000000000000000
1.595113511794716 0.282865488333112 0.000000000000000
1.589903586432906 0.310815999986781 0.000000000000000
1.584203934887640 0.338670773298372 0.000000000000000
1.578016312780216 0.366421228369114 0.000000000000000
1.619840855236578 0.406221126612628 0.000000000000000
1.612462242970532 0.434586602410201 0.000000000000000
1.604586955945742 0.462818215727057 0.000000000000000
1.567542855498481 0.482088577105563 0.000000000000000
1.587356212924266 0.518845114933861 0.000000000000000
1.578006064385271 0.546623143274513 0.000000000000000
1.615121047612651 0.591425398134551 0.000000000000000
1.576507506212041 0.608871154561530 0.000000000000000
1.565579080869720 0.636444924202496 0.000000000000000
1.627738524649601 0.695246212051197 0.000000000000000
1.587908601375903 0.711439578373612 0.000000000000000
1.575178354972550 0.739197639353625 0.000000000000000
1.606846909988448 0.788760424882345 0.000000000000000
1.592756774062336 0.816838942924823 0.000000000000000
1.622259162522976 0.868259874467463 0.000000000000000
1.606771445869260 0.896596632125733 0.000000000000000
1.590788807350731 0.924657217788105 0.000000000000000
1.617096500686724 0.978314319360987 0.000000000000000
1.641997662469772 1.033171658749796 0.000000000000000
1.623612721212356 1.061829426752437 0.000000000000000
1.604727670597268 1.090160127329681 0.000000000000000
1.585348327646272 1.118155033986419 0.000000000000000
1.605828101367166 1.175336593857063 0.000000000000000
1.624776709377234 1.233572310270171 0.000000000000000
1.642163620785748 1.292825836131009 0.000000000000000
1.657959112622165 1.353060080289535 0.000000000000000
1.633957704613691 1.381948703654937 0.000000000000000
1.647057042833018 1.443365198989554 0.000000000000000
1.621472468431058 1.472048584157497 0.000000000000000
1.631812837614330 1.534531479962881 0.000000000000000
1.640448300736145 1.597820194080640 0.000000000000000
1.647353945699735 1.661873935528057 0.000000000000000
1.652505770412093 1.726651290433229 0.000000000000000
1.655880696915160 1.792110241470587 0.000000000000000
1.624174324368826 1.820894770177856 0.000000000000000
1.657212246096342 1.924901964097994 0.000000000000000
1.655127455035495 1.992147862882604 0.000000000000000
1.682455368288863 2.098914941991692 0.000000000000000
1.657593676038723 2.143941045168088 0.000000000000000
1.649596439146779 2.212788193197502 0.000000000000000
1.668859925832134 2.322607704273703 0.000000000000000
1.684758909810965 2.433759933890886 0.000000000000000
1.669520096333374 2.504556377472666 0.000000000000000
1.679305220034866 2.617639008336262 0.000000000000000
1.711874528822180 2.774362196536321 0.000000000000000
1.688426038050336 2.846983932872408 0.000000000000000
1.712440478727297 3.006517521455051 0.000000000000000
1.673800645115949 3.062432268705618 0.000000000000000
1.721905071693600 3.286204942494588 0.000000000000000
1.708818195404623 3.405295930613680 0.000000000000000
1.735343212594505 3.615063475860719 0.000000000000000
1.713318544975879 3.735858611275558 0.000000000000000
1.747703077151714 3.994387807175767 0.000000000000000
1.754274693348162 4.209052185501887 0.000000000000000
1.772248811517893 4.471603085032639 0.000000000000000
1.781519431156776 4.736009767347491 0.000000000000000
1.798808138507627 5.049147381572332 0.000000000000000
1.821574255172242 5.411651063482723 0.000000000000000
1.817019613522013 5.728746784775559 0.000000000000000
1.730478739498754 5.807671076442157 0.000000000000000
1.628288203252765 5.837146351355933 0.000000000000000
3.363360417448000 12.929710232729271 0.000000000000000
3.171136118178812 13.132554805519824 0.000000000000000
2.961935694054698 13.283788501187630 0.000000000000000
2.748397076700793 13.431694364777012 0.000000000000000
2.521411058394207 13.527013205974459 0.000000000000000
2.291923114787988 13.618487009792995 0.000000000000000
2.067430007443571 13.755501923387669 0.000000000000000
2.226020084562690 16.813281493602716 0.000000000000000
2.596528351999770 22.661732954857211 0.000000000000000
2.940539892410911 30.367965442899532 0.000000000000000
2.458415111498962 31.062868430644869 0.000000000000000
1.909816921301489 31.051323632449396 0.000000000000000
1.362382143912765 31.030106588504456 0.000000000000000
0.814964864871301 30.949271918237841 0.000000000000000
0.249305870867588 28.408906113800843 0.000000000000000
-0.438764292269607 49.998074821895180 0.000000000000000
-0.364838922064482 13.855197312234381 0.000000000000000
-0.605746857934167 13.796708692441937 0.000000000000000
-0.838575993088341 13.634235963332008 0.000000000000000
-1.073781439906961 13.567575075130829 0.000000000000000
-0.569603106002901 5.882486914701285 0.000000000000000
-0.672752413867543 5.871584470109870 0.000000000000000
-0.775694498806930 5.858873444999531 0.000000000000000
-0.796651677922182 5.300466593052330 0.000000000000000
-0.823167172291704 4.891216188890170 0.000000000000000
-0.835583897258547 4.482789260119442 0.000000000000000
-0.843964383144444 4.124539261539841 0.000000000000000
-0.850930827608660 3.816283103574110 0.000000000000000
-0.870830125717498 3.606349247111662 0.000000000000000
-0.883637355182821 3.396952314137705 0.000000000000000
-0.884004651600924 3.169011798013369 0.000000000000000
-0.888083973571144 2.980504463322625 0.000000000000000
-0.910021470332988 2.869139404687926 0.000000000000000
-0.896431463578634 2.663176793062426 0.000000000000000
-0.926251951918106 2.599934099466350 0.000000000000000
-0.918926030695491 2.442882508453943 0.000000000000000
-0.917442731950012 2.314821555453487 0.000000000000000
-0.927149563809008 2.224521001548146 0.000000000000000
-0.925961951426711 2.116292622609179 0.000000000000000
-0.921273475522310 2.008819350588560 0.000000000000000
-0.934748463641928 1.947266111685575 0.000000000000000
-0.937383209552668 1.867996980310391 0.000000000000000
-0.956098233878386 1.824685224134462 0.000000000000000
-0.954402087043192 1.746200634591455 0.000000000000000
-0.960154488072531 1.685735257694450 0.000000000000000
-0.964086166741733 1.625619224510227 0.000000000000000
-0.939955646193774 1.523346114049084 0.000000000000000
-0.939546971980922 1.464531149358552 0.000000000000000
-0.965104640405340 1.447816643455959 0.000000000000000
-0.961906269452881 1.389545367660675 0.000000000000000
-0.956968628798846 1.331844977275830 0.000000000000000
-0.950310992117166 1.274758415646387 0.000000000000000
-0.972536511033790 1.257884229452863 0.000000000000000
-0.963190062143067 1.201609297645801 0.000000000000000
-0.984129838129213 1.184520350903170 0.000000000000000
-0.972144191607697 1.129174774214965 0.000000000000000
-0.958529109463570 1.074626421744308 0.000000000000000
-0.977241067031898 1.057638831031821 0.000000000000000
-0.961080761871468 1.004203051758237 0.000000000000000
-0.978556403642151 0.987181525805128 0.000000000000000
-0.959912979470059 0.934969021863780 0.000000000000000
-0.976173751072858 0.917978653192080 0.000000000000000
-0.992133839131332 0.900705526379473 0.000000000000000
-0.970184285504381 0.850201418582888 0.000000000000000
-0.946779230710737 0.800755323613141 0.000000000000000
-0.960686588622189 0.784016121289263 0.000000000000000
-0.935011822361263 0.736106576553062 0.000000000000000
-0.987609372366554 0.749818463105398 0.000000000000000
-0.960269065641672 0.702839470698445 0.000000000000000
-0.972455932937662 0.685878603321566 0.000000000000000
-0.984343261861211 0.668706469856866 0.000000000000000
-0.995927390846754 0.651328359708969 0.000000000000000
-0.964885224337907 0.607121490193180 0.000000000000000
-0.975391540096754 0.590094351360595 0.000000000000000
-0.985597413249909 0.572885450151326 0.000000000000000
-0.995499700158129 0.555500087295291 0.000000000000000
-1.005095350693583 0.537943617876580 0.000000000000000
-0.969890996496059 0.497404719434669 0.000000000000000
-0.978471023400787 0.480306627442321 0.000000000000000
-0.986749659149471 0.463060590169800 0.000000000000000
-0.994724353735480 0.445671919785768 0.000000000000000
-0.956411336517280 0.408506248888839 0.000000000000000
-0.963433280535213 0.391658414893844 0.000000000000000
-1.016800699272855 0.392703880752702 0.000000000000000
-0.976584819486720 0.357606054686007 0.000000000000000
-0.982710363449510 0.340412017368559 0.000000000000000
-0.988533210443854 0.323113125467794 0.000000000000000
-0.994051566901476 0.305714707432796 0.000000000000000
-0.951222207416937 0.274365289562746 0.000000000000000
-1.033134491005071 0.278447703340667 0.000000000000000
-0.960264938134259 0.240813721764372 0.000000000000000
-0.964343302254577 0.223924084003347 0.000000000000000
-0.968124626875780 0.206965472571227 0.000000000000000
-1.001050406272571 0.195698962954640 0.000000000000000
-0.974791590541215 0.172862242870235 0.000000000000000
-1.007301696495344 0.160447163382849 0.000000000000000
-1.009962391688194 0.142744412764437 0.000000000000000
-1.012311995672912 0.124997693645627 0.000000000000000
-1.014349784718449 0.107212472416391 0.000000000000000
-1.016075131139793 0.089394227326223 0.000000000000000
-1.017487503491310 0.071548446796707 0.000000000000000
-0.988628041238372 0.052101785738881 0.000000000000000
-1.019371682351716 0.035796273820496 0.000000000000000
-1.019842908490997 0.017900893849882 0.000000000000000
-0.970000000000000 0.000000000000000 0.000000000000000
