ply
format ascii 1.0
element vertex 180
property double x
property double y
property double z
end_header
1.620000000000000 0.000000000000000 0.000000000000000
1.619750501720995 0.028430831408637 0.000000000000000
1.619002083735079 0.056852905479610 0.000000000000000
1.617754976571881 0.085257467572715 0.000000000000000
1.616009564368551 0.113635768441830 0.000000000000000
1.613766384751436 0.141979066929884 0.000000000000000
1.611026128670478 0.170278632661328 0.000000000000000
1.607789640186390 0.198525748731290 0.000000000000000
1.653565876587532 0.233708989526088 0.000000000000000
1.599832106198487 0.254827847725702 0.000000000000000
1.595113511794716 0.282865488333112 0.000000000000000
1.589903586432906 0.310815999986781 0.000000000000000
1.584203934887640 0.338670773298372 0.000000000000000
1.578016312780216 0.366421228369114 0.000000000000000
1.619840855236578 0.406221126612628 0.000000000000000
1.612462242970532 0.434586602410201 0.000000000000000
1.604586955945742 0.462818215727057 0.000000000000000
1.596217419928332 0.490907270589202 0.000000000000000
1.587356212924266 0.518845114933861 0.000000000000000
1.578006064385271 0.546623143274513 0.000000000000000
1.586950331665919 0.581109838864762 0.000000000000000
1.604492846559001 0.619679518251971 0.000000000000000
1.593370425500544 0.647742763093665 0.000000000000000
1.600149736096218 0.683462377948635 0.000000000000000
1.587908601375903 0.711439578373612 0.000000000000000
1.575178354972550 0.739197639353625 0.000000000000000
1.588893313228801 0.779947459241201 0.000000000000000
1.592756774062336 0.816838942924823 0.000000000000000
1.534092903690205 0.821071837811622 0.000000000000000
1.563109178318465 0.872232593209273 0.000000000000000
1.590788807350731 0.924657217788105 0.000000000000000
1.574316169980726 0.952432988160961 0.000000000000000
1.557358607703289 0.979915387680219 0.000000000000000
1.581767032521316 1.034462688949539 0.000000000000000
1.604727670597268 1.090160127329681 0.000000000000000
1.585348327646272 1.118155033986419 0.000000000000000
1.565480661634322 1.145805523659650 0.000000000000000
1.545130792250899 1.173103079374575 0.000000000000000
1.563591198738583 1.230968140622349 0.000000000000000
1.580484387733279 1.289832973733949 0.000000000000000
1.557604540846696 1.317371661428070 0.000000000000000
1.534244916611579 1.344504568921776 0.000000000000000
1.547432629689913 1.404831753830671 0.000000000000000
1.558964050220833 1.466025610321681 0.000000000000000
1.568813003760768 1.528046386478865 0.000000000000000
1.541754333795906 1.555343555045490 0.000000000000000
1.548792019131000 1.618284054631980 0.000000000000000
1.554084752432670 1.681939529904772 0.000000000000000
1.557609802878301 1.746267935334501 0.000000000000000
1.559345381169393 1.811226651257562 0.000000000000000
1.559270652620312 1.876772504028399 0.000000000000000
1.557365749828724 1.942861786453276 0.000000000000000
1.553611784921903 2.009450278497027 0.000000000000000
1.518106867910441 2.036406525623788 0.000000000000000
1.522980561685968 2.119582555298730 0.000000000000000
1.514006317600394 2.187095075726269 0.000000000000000
1.530855636505021 2.296536744792212 0.000000000000000
1.490315886590428 2.323049409327358 0.000000000000000
1.501828574365470 2.433949657084012 0.000000000000000
1.509891562727793 2.545943335740885 0.000000000000000
1.489724231493978 2.615496456525926 0.000000000000000
1.515532962339943 2.772861309200501 0.000000000000000
1.513048661380360 2.887608655669099 0.000000000000000
1.506989274687542 3.003095623848284 0.000000000000000
1.497328557500496 3.119231827051892 0.000000000000000
1.484042340660372 3.235926193708269 0.000000000000000
1.487151012897444 3.398894212069288 0.000000000000000
1.484978139544716 3.562925753516948 0.000000000000000
1.477488094425520 3.727885316212241 0.000000000000000
1.482252333037555 3.940435004057893 0.000000000000000
1.479989531869148 4.154242528495145 0.000000000000000
1.454707286092018 4.321738852798812 0.000000000000000
1.439103720526586 4.537243709739045 0.000000000000000
1.430643314338079 4.801391434484357 0.000000000000000
1.319289616826911 4.729437060257035 0.000000000000000
1.248672729830994 4.800251703168951 0.000000000000000
1.234654032688420 5.113045024206830 0.000000000000000
2.624610174158682 11.770939700538047 0.000000000000000
2.447697177718212 11.962143559002723 0.000000000000000
2.255710038432608 12.101564866682093 0.000000000000000
2.067875598136013 12.287208409994259 0.000000000000000
1.859349345299718 12.371051693859076 0.000000000000000
1.655077433156575 12.500912714288338 0.000000000000000
1.441124460162958 12.577708864905405 0.000000000000000
1.220165029102659 12.601063340121536 0.000000000000000
1.006719410228715 12.720224684692829 0.000000000000000
0.949076489981389 15.430840995103431 0.000000000000000
0.789971101476784 17.992666441048467 0.000000000000000
0.597798839832922 22.702130660955472 0.000000000000000
0.258958685297519 29.508863759882537 0.000000000000000
-0.262907563927949 29.958846433279593 0.000000000000000
-0.787325552593699 29.899635758220086 0.000000000000000
-1.311939791514188 29.881213395433623 0.000000000000000
-1.845358298113875 30.003304030582733 0.000000000000000
-2.359794479619192 29.816764915294865 0.000000000000000
-1.899640815451298 19.618243162227131 0.000000000000000
-1.441124460162960 12.577708864905405 0.000000000000000
-1.655077433156580 12.500912714288337 0.000000000000000
-1.866780797519143 12.420496344913669 0.000000000000000
-2.067875598136014 12.287208409994259 0.000000000000000
-2.274034246705826 12.199871648702254 0.000000000000000
-0.954221012771391 4.663374556990414 0.000000000000000
-1.035915790132282 4.645909865220656 0.000000000000000
-1.129027737116217 4.675617217953394 0.000000000000000
-1.173148169558959 4.509913898541797 0.000000000000000
-1.144638241890558 4.103340504418527 0.000000000000000
-1.145085766566008 3.843029870715024 0.000000000000000
-1.106537734690610 3.488721003706913 0.000000000000000
-1.103791054797890 3.279214129535941 0.000000000000000
-1.110831145235120 3.118036909142615 0.000000000000000
-1.077361553229196 2.864069147842554 0.000000000000000
-1.090614653241781 2.751755744635470 0.000000000000000
-1.081033308839549 2.593736105539540 0.000000000000000
-1.066259216794394 2.436943019974207 0.000000000000000
-1.067176514632178 2.326958161767744 0.000000000000000
-1.042936943230114 2.172644133871405 0.000000000000000
-1.058480561982917 2.109317164369628 0.000000000000000
-1.072129572941297 2.046127605704178 0.000000000000000
-1.059913875560529 1.939247940928199 0.000000000000000
-1.044291737027340 1.833454326667675 0.000000000000000
-1.025297986852319 1.728833143526749 0.000000000000000
-1.029225176837875 1.668021443316315 0.000000000000000
-1.031341791082506 1.607617526020019 0.000000000000000
-1.048303316302352 1.572628423064231 0.000000000000000
-1.047282565558167 1.512877796742984 0.000000000000000
-1.044496247286546 1.453660066660815 0.000000000000000
-1.010078979042774 1.354931900907166 0.000000000000000
-1.033702329337801 1.336996445141723 0.000000000000000
-1.057007275988170 1.318649164299613 0.000000000000000
-1.016082105600941 1.222978803854572 0.000000000000000
-1.004766479916680 1.167066545161776 0.000000000000000
-1.025093630954095 1.149253256587663 0.000000000000000
-1.011173048526061 1.094362401553760 0.000000000000000
-1.009480512469312 1.054774428465487 0.000000000000000
-1.013756274276760 1.022691652632650 0.000000000000000
-1.031548276445437 1.004742829465555 0.000000000000000
-0.976173751072858 0.917978653192080 0.000000000000000
-1.029153758501904 0.934313941542886 0.000000000000000
-1.007788327578194 0.883154961938814 0.000000000000000
-0.984955812594234 0.833043844726574 0.000000000000000
-0.999423951066632 0.815629674567056 0.000000000000000
-0.974298033384846 0.767035424307393 0.000000000000000
-0.987609372366554 0.749818463105398 0.000000000000000
-1.000616505374516 0.732370540895859 0.000000000000000
-1.013315425918236 0.714697032032556 0.000000000000000
-1.025702222443615 0.696803380355054 0.000000000000000
-0.995927390846754 0.651328359708969 0.000000000000000
-0.964885224337907 0.607121490193180 0.000000000000000
-0.975391540096754 0.590094351360595 0.000000000000000
-1.028825369971397 0.598012004982524 0.000000000000000
-0.951837432607334 0.531136048378831 0.000000000000000
-0.961012221277198 0.514349599548660 0.000000000000000
-0.969890996496059 0.497404719434669 0.000000000000000
-0.978471023400787 0.480306627442321 0.000000000000000
-0.986749659149471 0.463060590169800 0.000000000000000
-0.994724353735480 0.445671919785768 0.000000000000000
-0.956411336517280 0.408506248888839 0.000000000000000
-0.963433280535213 0.391658414893844 0.000000000000000
-0.970158465361256 0.374689941268634 0.000000000000000
-0.976584819486720 0.357606054686007 0.000000000000000
-0.982710363449510 0.340412017368559 0.000000000000000
-0.988533210443854 0.323113125467794 0.000000000000000
-0.946260626185059 0.291016884960066 0.000000000000000
-0.951222207416937 0.274365289562746 0.000000000000000
-0.955890790743010 0.257629183464730 0.000000000000000
-0.960264938134259 0.240813721764372 0.000000000000000
-0.964343302254577 0.223924084003347 0.000000000000000
-0.968124626875780 0.206965472571227 0.000000000000000
-0.971607747264554 0.189943111103033 0.000000000000000
-0.974791590541215 0.172862242870235 0.000000000000000
-0.928297641868258 0.147863072137136 0.000000000000000
-0.930749655085198 0.131548772547618 0.000000000000000
-0.932914976404448 0.115193952967539 0.000000000000000
-0.934792938858179 0.098803651050400 0.000000000000000
-0.966267526672156 0.085012157359251 0.000000000000000
-0.967610665084873 0.068041169992947 0.000000000000000
-0.968655757576990 0.051049224410823 0.000000000000000
-0.969402482236436 0.034041554515569 0.000000000000000
-0.969850609055163 0.017023399053319 0.000000000000000
-0.970000000000000 0.000000000000000 0.000000000000000
