ply
format ascii 1.0
element vertex 180
property double x
property double y
property double z
end_header
1.570000000000000 0.000000000000000 0.000000000000000
1.569758202285161 0.027553336612074 0.000000000000000
1.619002083735079 0.056852905479610 0.000000000000000
1.597782692910500 0.084204906244657 0.000000000000000
1.596058829005977 0.112232857720326 0.000000000000000
1.563958780283799 0.137596996962912 0.000000000000000
1.561303100007809 0.165023119307583 0.000000000000000
1.558166503143600 0.192398410807484 0.000000000000000
1.554549955833788 0.219714439255065 0.000000000000000
1.599832106198487 0.254827847725702 0.000000000000000
1.595113511794716 0.282865488333112 0.000000000000000
1.589903586432906 0.310815999986781 0.000000000000000
1.584203934887640 0.338670773298372 0.000000000000000
1.578016312780216 0.366421228369114 0.000000000000000
1.571342626037878 0.394058817432610 0.000000000000000
1.564184930306743 0.421575027487740 0.000000000000000
1.556545430318624 0.448961382920858 0.000000000000000
1.567542855498481 0.482088577105563 0.000000000000000
1.587356212924266 0.518845114933861 0.000000000000000
1.596904340605454 0.553169528223908 0.000000000000000
1.539999138421365 0.563917240081781 0.000000000000000
1.604492846559001 0.619679518251971 0.000000000000000
1.565579080869720 0.636444924202496 0.000000000000000
1.554168421840580 0.663822654444364 0.000000000000000
1.587908601375903 0.711439578373612 0.000000000000000
1.575178354972550 0.739197639353625 0.000000000000000
1.561962918089329 0.766728010779486 0.000000000000000
1.592756774062336 0.816838942924823 0.000000000000000
1.578176033106590 0.844665856139543 0.000000000000000
1.563109178318465 0.872232593209273 0.000000000000000
1.590788807350731 0.924657217788105 0.000000000000000
1.574316169980726 0.952432988160961 0.000000000000000
1.582750324133234 0.995892269001092 0.000000000000000
1.539921343830275 1.007095951146642 0.000000000000000
1.563368710014864 1.062063216831493 0.000000000000000
1.544488834665698 1.089336605275429 0.000000000000000
1.565480661634322 1.145805523659650 0.000000000000000
1.584953750814066 1.203337694822373 0.000000000000000
1.602877409762165 1.261896988376679 0.000000000000000
1.580484387733279 1.289832973733949 0.000000000000000
1.595781122730193 1.349660182541504 0.000000000000000
1.571848958685392 1.377458112277702 0.000000000000000
1.584452549060486 1.438440168994084 0.000000000000000
1.558964050220833 1.466025610321681 0.000000000000000
1.568813003760768 1.528046386478865 0.000000000000000
1.541754333795906 1.555343555045490 0.000000000000000
1.583363269558031 1.654406466565730 0.000000000000000
1.554084752432670 1.681939529904772 0.000000000000000
1.557609802878301 1.746267935334501 0.000000000000000
1.591967669478376 1.849118422204372 0.000000000000000
1.591222920092040 1.915230956979801 0.000000000000000
1.538602307059703 1.919453813122514 0.000000000000000
1.553611784921903 2.009450278497027 0.000000000000000
1.577874854836050 2.116580010884568 0.000000000000000
1.552156434515202 2.160187585093724 0.000000000000000
1.542465082968822 2.228205885420372 0.000000000000000
1.558588528470691 2.338140671328303 0.000000000000000
1.571311315209473 2.449302094616889 0.000000000000000
1.554340062979648 2.519052791947089 0.000000000000000
1.560901412819948 2.631954934921320 0.000000000000000
1.563962980571751 2.745836811502302 0.000000000000000
1.539512914275701 2.816735697004307 0.000000000000000
1.559461197005524 2.976185608296985 0.000000000000000
1.574265581593235 3.137162392770083 0.000000000000000
1.562241645253407 3.254458640363390 0.000000000000000
1.546572214564601 3.372271398499347 0.000000000000000
1.547278412340737 3.536315810940013 0.000000000000000
1.561920012059987 3.747533305512644 0.000000000000000
1.459065549607247 3.681402955660967 0.000000000000000
1.376628651348418 3.659643911132152 0.000000000000000
1.362530045212866 3.824540740519340 0.000000000000000
1.359002859375438 4.037413928272574 0.000000000000000
3.283333278344269 10.351778715917234 0.000000000000000
3.129710723581906 10.503642738911887 0.000000000000000
2.958325596998836 10.605112430433799 0.000000000000000
2.809513642119737 10.800566332130140 0.000000000000000
2.654740895381374 10.994018863836359 0.000000000000000
2.483151085170030 11.136519235749512 0.000000000000000
2.297347228226921 11.227368156115578 0.000000000000000
2.118278476383506 11.364264001530868 0.000000000000000
1.926808643206991 11.448995958269128 0.000000000000000
1.733014657569521 11.530492625931002 0.000000000000000
1.530388808136849 11.559131026851867 0.000000000000000
1.332983209202863 11.633883950082332 0.000000000000000
1.355096390930757 13.994545857986477 0.000000000000000
1.330195082794368 16.807444215040835 0.000000000000000
1.259091772931326 20.471316223128806 0.000000000000000
1.241759127307482 28.282753300726373 0.000000000000000
0.764950871226099 29.049930295348567 0.000000000000000
0.254132278082554 28.958884936841692 0.000000000000000
-0.253254749498017 28.858888787197898 0.000000000000000
-0.758370082588581 28.800016923915766 0.000000000000000
-1.265883730628535 28.832223958281990 0.000000000000000
-1.197702607990742 19.473202316589127 0.000000000000000
-3.944825275190893 49.844140614000111 0.000000000000000
-1.118966507731586 11.555951451722830 0.000000000000000
-1.321599919628117 11.534533959048321 0.000000000000000
-1.510701130502159 11.410428655151369 0.000000000000000
-1.703288848691829 11.332714021712631 0.000000000000000
-1.893616418517811 11.251769499039685 0.000000000000000
-2.063305851563868 11.069343655470377 0.000000000000000
-2.237207248430404 10.933457994960719 0.000000000000000
-0.840049359224918 3.767481529359607 0.000000000000000
-0.870830125717498 3.606349247111662 0.000000000000000
-0.946574488742851 3.638900484660334 0.000000000000000
-1.023725751550006 3.669889042684176 0.000000000000000
-1.045140624845783 3.507603323395758 0.000000000000000
-1.030954556091525 3.250420388699610 0.000000000000000
-1.039988103653504 3.089664179851782 0.000000000000000
-1.043711438574388 2.929635887442155 0.000000000000000
-1.042153659332817 2.770472116867307 0.000000000000000
-1.035347018786961 2.612308662981646 0.000000000000000
-1.042562372581913 2.501432329541691 0.000000000000000
-1.026174283832199 2.345328620727056 0.000000000000000
-1.025489932029358 2.236061358573691 0.000000000000000
-1.042936943230114 2.172644133871405 0.000000000000000
-1.036055126347686 2.064628241395695 0.000000000000000
-1.025717037316133 1.957550653076292 0.000000000000000
-1.026341942850467 1.877823798002871 0.000000000000000
-1.019545487334749 1.790007541675551 0.000000000000000
-1.025297986852319 1.728833143526749 0.000000000000000
-1.002969432530787 1.625469875884777 0.000000000000000
-1.004343314876158 1.565533297590176 0.000000000000000
-1.020570424336681 1.531024496528141 0.000000000000000
-1.018823800189738 1.471766987048881 0.000000000000000
-1.015320374457312 1.413055036865820 0.000000000000000
-1.010078979042774 1.354931900907166 0.000000000000000
-1.003119420185795 1.297440337297293 0.000000000000000
-1.025734871373136 1.279635875415009 0.000000000000000
-1.016082105600941 1.222978803854572 0.000000000000000
-1.004766479916680 1.167066545161776 0.000000000000000
-1.025093630954095 1.149253256587663 0.000000000000000
-1.011173048526061 1.094362401553760 0.000000000000000
-0.995652012298500 1.040325463691987 0.000000000000000
-1.013756274276760 1.022691652632650 0.000000000000000
-0.974240038865135 0.948923783384135 0.000000000000000
-1.012598144769606 0.952231588012680 0.000000000000000
-0.992133839131332 0.900705526379473 0.000000000000000
-1.007788327578194 0.883154961938814 0.000000000000000
-0.984955812594234 0.833043844726574 0.000000000000000
-1.038161313511075 0.847243227844849 0.000000000000000
-1.013584244408428 0.797964272061723 0.000000000000000
-0.987609372366554 0.749818463105398 0.000000000000000
-1.000616505374516 0.732370540895859 0.000000000000000
-0.972455932937662 0.685878603321566 0.000000000000000
-0.984343261861211 0.668706469856866 0.000000000000000
-0.995927390846754 0.651328359708969 0.000000000000000
-1.007204751721148 0.633749625727968 0.000000000000000
-0.975391540096754 0.590094351360595 0.000000000000000
-0.985597413249909 0.572885450151326 0.000000000000000
-0.995499700158129 0.555500087295291 0.000000000000000
-1.005095350693583 0.537943617876580 0.000000000000000
-1.014381409179365 0.520221449683965 0.000000000000000
-1.023355015299905 0.502339041545180 0.000000000000000
-0.986749659149471 0.463060590169800 0.000000000000000
-0.994724353735480 0.445671919785768 0.000000000000000
-0.956411336517280 0.408506248888839 0.000000000000000
-0.963433280535213 0.391658414893844 0.000000000000000
-1.016800699272855 0.392703880752702 0.000000000000000
-0.929633626242166 0.340413455903026 0.000000000000000
-0.982710363449510 0.340412017368559 0.000000000000000
-0.941007575326361 0.307578840589535 0.000000000000000
-0.994051566901476 0.305714707432796 0.000000000000000
-0.999263733044055 0.288222122368946 0.000000000000000
-1.004168103406798 0.270640758387191 0.000000000000000
-0.960264938134259 0.240813721764372 0.000000000000000
-0.964343302254577 0.223924084003347 0.000000000000000
-0.968124626875780 0.206965472571227 0.000000000000000
-0.971607747264554 0.189943111103033 0.000000000000000
-0.974791590541215 0.172862242870235 0.000000000000000
-0.977675176010186 0.155728129165707 0.000000000000000
-0.980257615462070 0.138546047683130 0.000000000000000
-0.962688858630122 0.118870355721822 0.000000000000000
-1.014349784718449 0.107212472416391 0.000000000000000
-0.966267526672156 0.085012157359251 0.000000000000000
-0.967610665084873 0.068041169992947 0.000000000000000
-0.998614183069062 0.052628066402910 0.000000000000000
-0.999384002305604 0.035094386098525 0.000000000000000
-0.969850609055163 0.017023399053319 0.000000000000000
-1.020000000000000 0.000000000000000 0.000000000000000
